<svg height="1065pt" fill="white" viewBox="-33 -139 1065.0001 1065" width="1065pt" xmlns="http://www.w3.org/2000/svg"><path d="m142.289062 141.453125h707.875c16.15625 0 29.253907 13.097656 29.253907 29.25v165.757813h57.523437c16.15625 0 29.25 13.097656 29.25 29.25 0 16.164062-13.09375 29.25-29.25 29.25h-57.523437v204.757812c0 16.164062-13.097657 29.25-29.253907 29.25h-707.875c-16.15625 0-29.253906-13.085938-29.253906-29.25v-204.757812h-55.574218c-16.15625 0-29.253907-13.085938-29.253907-29.25 0-16.148438 13.097657-29.25 29.253907-29.25h55.574218v-165.757813c0-16.152344 13.097656-29.25 29.253906-29.25zm-85.796874 1.953125v-93.601562h93.597656c16.152344 0 29.25-13.09375 29.25-29.257813 0-16.152344-13.097656-29.25-29.25-29.25h-122.847656c-16.160157 0-29.253907 13.097656-29.253907 29.25v122.859375c0 16.160156 13.09375 29.25 29.253907 29.25 16.152343 0 29.25-13.089844 29.25-29.25zm115.046874 193.054688h58.503907v-136.507813h-58.503907zm117.003907 0h58.503906v-136.507813h-58.503906zm117.003906 0h58.503906v-136.507813h-58.503906zm117.003906 0h58.503907v-136.507813h-58.503907zm117.007813 0h58.5v-136.507813h-58.5zm117 0h64.355468v-136.507813h-64.355468zm64.355468 58.5h-64.355468v117.28125c0 16.148437-13.09375 29.25-29.25 29.25-16.148438 0-29.25-13.101563-29.25-29.25v-117.28125h-58.5v11.703124c0 16.164063-13.097656 29.25-29.253906 29.25-16.144532 0-29.25-13.085937-29.25-29.25v-11.703124h-58.503907v11.703124c0 16.164063-13.09375 29.25-29.25 29.25-16.148437 0-29.25-13.085937-29.25-29.25v-11.703124h-58.503906v11.703124c0 16.164063-13.097656 29.25-29.25 29.25s-29.25-13.085937-29.25-29.25v-11.703124h-58.503906v117.28125c0 16.148437-13.09375 29.25-29.25 29.25-16.148438 0-29.25-13.101563-29.25-29.25v-117.28125h-58.503907v175.507812h649.375zm-239.859374 111.058593v7.902344c0 16.15625 13.09375 29.25 29.25 29.25s29.253906-13.09375 29.253906-29.25v-7.902344c0-16.152343-13.097656-29.25-29.253906-29.25s-29.25 13.097657-29.25 29.25zm-117.003907 0v7.902344c0 16.15625 13.101563 29.25 29.25 29.25 16.15625 0 29.25-13.09375 29.25-29.25v-7.902344c0-16.152343-13.09375-29.25-29.25-29.25-16.148437 0-29.25 13.097657-29.25 29.25zm-117.003906 0v7.902344c0 16.15625 13.097656 29.25 29.25 29.25s29.25-13.09375 29.25-29.25v-7.902344c0-16.152343-13.097656-29.25-29.25-29.25-16.15625 0-29.25 13.097657-29.25 29.25zm590.871094 121.003907v93.601562h-93.597657c-16.152343 0-29.25 13.097656-29.25 29.25 0 16.164062 13.097657 29.25 29.25 29.25h122.847657c16.15625 0 29.25-13.085938 29.25-29.25v-122.851562c0-16.15625-13.09375-29.25-29.25-29.25-16.152344 0-29.25 13.09375-29.25 29.25zm-939.9375 0v122.851562c0 16.164062 13.097656 29.25 29.253906 29.25h122.847656c16.152344 0 29.25-13.085938 29.25-29.25 0-16.152344-13.097656-29.25-29.25-29.25h-93.597656v-93.601562c0-16.15625-13.097656-29.25-29.25-29.25-16.15625 0-29.253906 13.09375-29.253906 29.25zm998.4375-483.617188v-122.859375c0-16.152344-13.09375-29.25-29.25-29.25h-122.847657c-16.152343 0-29.25 13.097656-29.25 29.25 0 16.164063 13.097657 29.257813 29.25 29.257813h93.597657v93.601562c0 16.160156 13.097656 29.25 29.25 29.25 16.15625 0 29.25-13.089844 29.25-29.25zm0 0" fill-rule="evenodd"/></svg>