<svg id="Capa_1" fill="#C94052" enable-background="new 0 0 512 512" height="512" viewBox="0 0 512 512" width="512" xmlns="http://www.w3.org/2000/svg"><g><circle cx="256" cy="286" r="15"/><path d="m13.946 423.157 25.43-14.766c.28-3.001-18.391-59.444 34.321-89.857 35.757-20.728 82.62-8.379 103.304 27.437 20.735 35.922 8.6 82.552-27.304 103.246-49.362 28.561-88.268-10.188-96.874-13.945l-25.4 14.751 12.715 13.755c28.918 31.245 69.132 47.78 109.115 48.21 38.185.408 77.336-14.026 106.748-43.391 28.809 28.764 67.198 43.403 105.13 43.403 40.547 0 81.435-16.582 110.731-48.223l11.177-14.648-25.4-14.751-8.071 6.914c-24.126 20.625-59.755 23.833-87.265 7.925-35.929-20.709-48.02-67.356-27.304-103.246 20.684-35.83 67.547-48.076 103.304-27.437 27.495 15.864 42.056 48.271 36.255 79.457l-.396 11.294 25.43 14.766 5.581-18.988c20.859-67.295-7.251-138.721-68.35-173.994-13.579-7.837-29.197-13.345-44.944-16.479 9.287-19.791 14.121-42.398 14.121-64.59 0-70.532-47.974-130.239-116.675-145.84l-18.325-2.373v29.399l10.005 3.545c29.897 10.562 49.995 38.526 49.995 70.269 0 41.353-33.647 76-75 76s-75-34.647-75-76c0-31.743 20.098-59.707 49.995-70.269l10.005-5.332v-29.399l-18.325 4.16c-68.701 15.601-116.675 75.308-116.675 145.84 0 22.192 4.834 44.799 14.121 64.589-15.747 3.135-31.365 8.643-44.944 16.479-61.099 35.273-89.209 107.699-68.35 174.994zm242.054-182.157c24.814 0 45 20.186 45 45s-20.186 45-45 45-45-20.186-45-45 20.186-45 45-45z"/></g></svg>