<?xml version="1.0" encoding="iso-8859-1"?>
<!-- Generator: Adobe Illustrator 19.0.0, SVG Export Plug-In . SVG Version: 6.00 Build 0)  -->
<svg version="1.1" id="Capa_1" xmlns="http://www.w3.org/2000/svg" xmlns:xlink="http://www.w3.org/1999/xlink" x="0px" y="0px"
	 viewBox="0 0 512.019 512.019" style="enable-background:new 0 0 512.019 512.019;" xml:space="preserve">
<path style="fill:#2196F3;" d="M405.343,0H106.676C100.785,0,96.01,4.776,96.01,10.667v490.667
	c-0.011,5.891,4.757,10.675,10.648,10.686c2.84,0.005,5.565-1.123,7.571-3.134L256.01,367.083l141.781,141.781
	c4.16,4.171,10.914,4.179,15.085,0.019c2.006-2.001,3.133-4.717,3.134-7.55V10.667C416.01,4.776,411.234,0,405.343,0z"/>
<path style="fill:#FAFAFA;" d="M367.604,145.067c-1.425-4.403-5.527-7.384-10.155-7.381h-69.76L266.143,71.36
	c-2.48-5.602-9.032-8.134-14.634-5.654c-2.522,1.116-4.538,3.132-5.654,5.654l-21.547,66.325H154.57
	c-5.891,0.07-10.609,4.902-10.539,10.793c0.039,3.313,1.616,6.419,4.267,8.407l56.512,41.109l-21.547,66.325
	c-1.827,5.601,1.233,11.622,6.833,13.448c3.257,1.062,6.826,0.496,9.593-1.523l56.32-40.981l56.427,40.981
	c4.759,3.472,11.432,2.427,14.904-2.332c2.019-2.768,2.585-6.336,1.523-9.593l-21.653-66.325l56.427-41.003
	C367.409,154.301,369.013,149.482,367.604,145.067z"/>
<g>
</g>
<g>
</g>
<g>
</g>
<g>
</g>
<g>
</g>
<g>
</g>
<g>
</g>
<g>
</g>
<g>
</g>
<g>
</g>
<g>
</g>
<g>
</g>
<g>
</g>
<g>
</g>
<g>
</g>
</svg>
