<svg id="Layer_1" fill="#8E6F00" enable-background="new 0 0 509.213 509.213" height="512" viewBox="0 0 509.213 509.213" width="512" xmlns="http://www.w3.org/2000/svg"><g><path d="m477.557 265.87c77.781-44.273-4.806-143.98-65.426-78.03-10.27-8.846-21.743-16.107-34.06-21.595 30.026-60.51-46.549-106.008-89.822-55.831-12.626-10.876-27.064-19.373-42.665-25.101 31.647-107.275-128.635-106.08-94.955-.3-14.717 5.307-28.493 13.103-40.662 23.02-80.605-88.422-163.032 55.994-48.273 79.418-3.059 14.741-3.694 30.097-1.867 45.088-120.647 27.733-33.775 168.29 41.771 83.43 11.354 10.877 24.483 19.776 38.759 26.261-2.407 10.033-5.665 22.591-4.791 32.82-.915 52.918 73.232 71.091 97.229 24.868 9.555 7.948 20.139 14.602 31.445 19.738-34.941 109.356 123.619 112.886 94.957 7.188 16.003-4.493 31.068-11.842 44.514-21.722 74.577 76.934 152.514-51.756 53.345-81.351 3.745-16.54 4.403-34.005 1.932-50.84 5.975-1.804 13.24-3.786 18.569-7.061zm-274.802 72.271c-.464 12.342 7.561 24.562 6.412 36.909 0 12.022-9.78 21.803-21.802 21.803s-21.802-9.78-21.802-21.803c-1.06-14.486 7.624-29.752 4.714-44.304l-1.34-9.603-8.48-3.086c-17.478-6.36-33.165-17.222-45.365-31.412l-7.133-8.296-10.079 4.258c-19.056 6.31-28.641 34.996-51.573 29.359-5.625-1.507-10.326-5.114-13.238-10.158s-3.686-10.919-2.178-16.544c6.606-22.083 36.101-18.044 50.899-31.319l10.755-8.408-1.744-9.013c-1.323-6.84-1.994-13.845-1.994-20.819 0-10.727 1.561-21.333 4.639-31.524l2.924-9.683-7.88-6.341c-11.582-10.939-29.477-9.449-42.279-17.713-10.411-6.012-13.99-19.371-7.979-29.782 2.912-5.044 7.613-8.651 13.238-10.158 22.427-5.321 33.681 22.243 52.574 28.421l11.516 4.647 6.999-6.675c13.569-12.941 30.299-22.195 48.378-26.762l10.793-2.726.518-11.12c1.492-13.5-7.423-26.547-6.359-39.93 0-12.021 9.78-21.802 21.802-21.802s21.803 9.78 21.803 21.802c1.142 13.179-6.538 27.348-5.093 40.559l.721 10.753 10.42 2.749c19.776 5.217 37.661 15.927 51.72 30.974l8.923 9.55 10.682-7.532c12.657-9.333 23.412-29.021 41.884-23.968 5.625 1.507 10.327 5.114 13.239 10.158 6.011 10.41 2.431 23.771-7.979 29.781-9.132 6.577-23.381 7.808-33.11 13.137l-10.356 5.49 2.823 11.376c2.129 8.577 3.208 17.432 3.208 26.318 0 12.363-2.061 24.503-6.126 36.08l-4.652 13.251 12.917 5.514c9.234 4.104 21.789 4.264 30.134 10.417 10.411 6.011 13.991 19.371 7.98 29.782-6.012 10.41-19.372 13.991-29.783 7.979-11.026-5.032-19.285-17.635-29.899-23.279l-9.316-5.276-8.018 7.096c-15.415 13.644-34.249 22.596-54.466 25.889l-12.741 2.075zm255.26-96.278c-6.202 2.019-17.642 4.858-23.241 8.088l-10.351 5.491 2.822 11.372c2.129 8.577 3.208 17.432 3.208 26.318 0 12.363-2.061 24.502-6.126 36.079l-4.653 13.254 12.921 5.512c14.183 5.471 35.658 5.81 40.289 23.655 1.508 5.625.734 11.5-2.178 16.544-2.912 5.043-7.613 8.65-13.238 10.157-19.76 5.076-31.45-17.252-46.443-25.457l-9.315-5.276-8.018 7.095c-15.417 13.644-34.252 22.596-54.467 25.889l-12.737 2.075.15 12.904c-.467 12.341 7.562 24.568 6.412 36.914 0 12.021-9.78 21.802-21.803 21.802-12.021 0-21.802-9.78-21.802-21.802-1.058-14.498 7.628-29.752 4.712-44.322l-1.35-9.59-8.469-3.081c-17.478-6.36-33.165-17.222-45.365-31.412l-.136.117c-.335-2.98-.926-5.929-1.773-8.814l-1.751-5.956c16.004-4.494 31.068-11.843 44.514-21.723l7.431 6.938c4.129 4.032 9.761 7.246 14.784 10.076 24.737 14.282 56.481 5.774 70.763-18.961 14.282-24.738 5.775-56.482-18.961-70.763-5.597-3.395-11.672-6.585-18.092-8.017l-2.58-.625c2.26-10.014 3.399-20.267 3.399-30.64 0-6.769-.492-13.523-1.468-20.2l7.785-2.375c3.493-1.066 6.866-2.518 10.048-4.288 18.378 5.517 34.983 15.829 48.204 29.979l8.923 9.55 10.682-7.532c8.933-5.961 15.318-17.357 25.34-21.791 10.408-6.011 23.77-2.432 29.782 7.98 2.911 5.043 3.685 10.919 2.178 16.544-2.246 9.506-11.529 14.997-20.03 18.292z"/><path d="m247.528 235.705c0-30.327-24.673-55-55-55s-55 24.673-55 55h30c0-13.785 11.215-25 25-25s25 11.215 25 25z"/></g></svg>