<svg height="512" viewBox="0 0 59 60" fill="white" width="512" xmlns="http://www.w3.org/2000/svg"><g id="025---Clean-Face" transform="translate(-1)"><path id="Shape" d="m2.39 27.5c0 7.276 4.438 9.163 6.545 9.65.58534675 2.0473044 1.3900089 4.0254323 2.4 5.9-1.0512336 1.3042634-2.66167882 2.0286851-4.335 1.95-.55228475 0-1 .4477153-1 1s.44771525 1 1 1c5.9 0 6 6.716 6 7v.015c.0041421.5522847.4552153.9966421 1.0075.9925.5522847-.0041422.9966421-.4552153.9925-1.0075.0415667-1.6129181.4964111-3.1881742 1.321-4.575 2.7101952 2.3384736 6.179554 3.6093987 9.759 3.575 5.222 0 9.565-2.385 12.925-7.079.9548612.1474481 1.9303574.0856905 2.859-.181 1.5195582 2.6348212 4.6630931 3.8635682 7.5666544 2.957659s4.7906598-3.7042105 4.5423456-6.735659c2.1082934.256529 4.1074693-1.0008771 4.78931-3.0122948.6818406-2.0114178-.1406153-4.225315-1.97031-5.3037052.5614708-1.6058373-.1166639-3.3825397-1.6053093-4.2058852-1.4886454-.8233456-3.3540406-.4534282-4.4158426.875684-1.0618021 1.3291122-1.0106236 3.2301432.1211519 4.5002012-.3869719.5127731-.6572713 1.1038824-.792 1.732-.8193931-.3606623-1.7047448-.5472672-2.6-.548-1.42 0-.99.349-1.307-.252 1.735-1.3 3.457-3.733 3.457-8.248 0-2.567-.455-5.713-2.987-6.073 3.5953445-5.5708957 5.0310452-12.26360111 4.037-18.819l-.4-1.825c-.1020897-.45927489-.5105209-.78527047-.981-.783h-46.638c-.4686077.00008042-.87431214.32555846-.976.783l-.42 1.9c-.97609417 6.53524265.46572372 13.2020948 4.055 18.75-2.504.393-2.95 3.523-2.95 6.067zm2 0c0-3.188.773-3.877 1.009-4.012.491-.279 1.393.119 1.82.412.04013657 3.6859096.41872674 7.3603431 1.131 10.977-1.773-.734-3.96-2.604-3.96-7.377zm9.61 21.973c-.6272299-1.4414838-1.6839656-2.6543202-3.026-3.473 1.3310337-.8316455 2.3844203-2.0406381 3.026-3.473.6272299 1.4414838 1.6839656 2.6543202 3.026 3.473-1.3321084.8303851-2.385816 2.0397462-3.026 3.473zm12.08 1.527c-3.0657366.0293912-6.0398936-1.0442156-8.38-3.025.968533-.6672291 2.1243668-1.0087255 3.3-.975.5522847 0 1-.4477153 1-1s-.4477153-1-1-1c-5.9 0-6-6.716-6-7v-.015c-.0041421-.5522847-.4552153-.9966421-1.0075-.9925-.5522847.0041422-.9966421.4552153-.9925 1.0075-.0283684.9866243-.2015513 1.9637265-.514 2.9-2.625-5.495-3.229-11.79-3.293-18 2.4012975-4.3619752 5.3768269-8.3821519 8.847-11.953 2.4307546 1.43668 5.2174312 2.1586511 8.04 2.083 4.864 0 8.02.038 10.367.66 2.5143514 2.9423053 4.701523 6.1491288 6.523 9.564-.0114751 3.0552759-.2511418 6.1054274-.717 9.125-3.5077689-1.2176239-7.3555145.5189261-8.7630385 3.9549015s.1161285 7.3728822 3.4700385 8.9660985c-2.904 3.767-6.552 5.7-10.88 5.7zm-6.555-41.5c1.9814337-1.86849876 4.1513842-3.52637449 6.475-4.947 3.0357634 1.87719353 5.8161347 4.13893416 8.272 6.729-6.391-.688-10.429.612-14.747-1.782zm15.475 29.5c0-2.7614237 2.2385763-5 5-5s5 2.2385763 5 5-2.2385763 5-5 5c-2.7600532-.0033061-4.9966939-2.2399468-5-5zm18.5-8c.8284271 0 1.5.6715729 1.5 1.5s-.6715729 1.5-1.5 1.5-1.5-.6715729-1.5-1.5.6715729-1.5 1.5-1.5zm-1.5 6.5c-.0007057-.5992643.2180696-1.1780407.615-1.627 1.038454.2900926 2.1530012.0671832 3-.6.8094066.3927454 1.3431897 1.1924461 1.3954229 2.0905885.0522333.8981423-.3852485 1.7543289-1.1436706 2.2382544s-1.7192282.5199429-2.5117523.0941571c-.3265676-.6812857-.7687831-1.3007934-1.307-1.831-.0254877-.1202298-.0415366-.2422683-.048-.365zm0 5c-.0052552 1.9945761-1.322867 3.747703-3.2373221 4.3073662-1.9144551.5596633-3.9688938-.2076934-5.0476779-1.8853662 2.3352453-1.4555218 3.5940794-4.1499441 3.212-6.875 1.2818231-.1685207 2.5740559.2239229 3.5456852 1.0768039s1.5282626 2.0833432 1.5273148 3.3761961zm-4.35-15c0 3.084-.889 5.305-2.635 6.627-.2772671-.2851268-.5783594-.5460734-.9-.78.5365476-3.1468459.8184612-6.3318346.843-9.524.479-.27 1.225-.6 1.687-.335.233.134 1.005.821 1.005 4.012zm.869-25.5c1.3455062 6.77733276-.1974128 13.808723-4.257 19.4-5.149-9.141-12.71-16.143-18.692-19.4zm-45.036 0h13.639c-2.2311766 1.47785169-4.2212109 3.29080664-5.9 5.375-.345178.43133439-.2753344 1.06082203.156 1.406s1.060822.27533439 1.406-.156c2.235219-2.76009517 5.0509149-4.99401034 8.247-6.543 1.015852.39926495 2.0102011.85121146 2.979 1.354-8.394 5.404-13.755 13.477-16.271 17.964-4.06526641-5.588722-5.60839999-12.62274255-4.256-19.4z"/><path id="Shape" d="m14.447 21.735c1.042756-.5241503 2.2517403-.6098377 3.358-.238l3.879 1.293c.5246705.174522 1.091478-.1093295 1.266-.634s-.1093295-1.091478-.634-1.266l-3.879-1.29c-1.6091008-.5405204-3.367483-.4155903-4.884.347-.3224865.158024-.5354742.4768371-.5580026.8352525-.0225283.3584153.1488625.7013887.4490237.8985495.3001611.1971608.6829949.2182297 1.0029789.055198z"/><path id="Shape" d="m30 22.841c.233 0 0 .055 4.2-1.344 1.1061301-.372853 2.3155155-.2871372 3.358.238.319984.1630317.7028178.1419628 1.0029789-.055198.3001612-.1971608.471552-.5401342.4490237-.8985495-.0225284-.3584154-.2355161-.6772285-.5580026-.8352525-1.5168882-.7625374-3.2755548-.8874622-4.885-.347l-3.878 1.293c-.4648693.1544237-.7494459.6228572-.672258 1.1065845.0771879.4837274.4934154.8403342.983258.8424155z"/><path id="Shape" d="m21.945 26.679c-.1773336-.5219338-.7435921-.8019321-1.266-.626-.035.011-3.445 1.123-6.079-.853-.3960804-.2952152-.9483792-.2569791-1.3.09-.3511209.3632656-.8045884.6109286-1.3.71-.5522847 0-1 .4477153-1 1s.4477153 1 1 1c.7467355-.0400537 1.4641538-.3038155 2.059-.757.151.09.3.17.454.247-.1340903.2034842-.3087328.3771054-.513.51-.5522847 0-1 .4477153-1 1 0 1.229 1.847 1.7 3.473-.819 1.6111637.3291562 3.2791971.2483506 4.851-.235.5204627-.1794014.7980392-.7457291.621-1.267z"/><path id="Shape" d="m37.4 25.2c-2.635 1.976-6.045.865-6.076.854-.5204722-.1722367-1.0825831.1066957-1.2602194.6253498s.0954393 1.0836335.6122194 1.2666502c1.5716688.4841161 3.2398958.5649311 4.851.235.508.789 1.379 1.819 2.473 1.819.5570459.0028164 1.0126955-.4430247 1.022-1 .0056485-.2632661-.0949969-.5177078-.2792108-.7058732-.1842139-.1881653-.4364625-.2941874-.6997892-.2941268-.2215905-.1272115-.4105663-.3042052-.552-.517.15-.077.3-.155.45-.245.5942558.4549744 1.3117255.7204974 2.059.762.5522847 0 1-.4477153 1-1s-.4477153-1-1-1c-.4926367-.0993298-.9435153-.3458659-1.293-.707-.3518492-.3518644-.9088739-.3914997-1.307-.093z"/><path id="Shape" d="m22.445 34.832c2.1514356 1.439441 4.9585644 1.439441 7.11 0 .297245-.1982824.4661283-.5400812.4430332-.8966441s-.2346599-.6737195-.555-.832-.7007882-.1336383-.9980332.0646441c-1.4799362.9891491-3.4100638.9891491-4.89 0-.4595009-.306518-1.0804819-.1825009-1.387.277-.306518.4595009-.1825009 1.080482.277 1.387z"/><path id="Shape" d="m30.7 39.6c-.6735025-.1491628-1.3239644-.387957-1.934-.71-2.6-1.183-2.917-1.184-5.522 0-.6100356.322043-1.2604975.5608372-1.934.71-.3357631-.0263483-.6673993.0878551-.915748.3153501-.2483488.227495-.3911263.5478691-.394252.8846499 0 1.411 2.825 3.2 6 3.2s6-1.79 6-3.2c-.0030208-.3350044-.1443462-.6538688-.3905186-.8811048-.2461724-.2272361-.575306-.3426416-.9094814-.3188952zm-7.82 1.628c1.0008803-.5024934 2.045128-.9134986 3.12-1.228 1.076232.3152377 2.1220748.7262121 3.125 1.228-1.9562805 1.0289672-4.2937195 1.0289672-6.25 0z"/><path id="Shape" d="m27 46h-2c-.5522847 0-1 .4477153-1 1s.4477153 1 1 1h2c.5522847 0 1-.4477153 1-1s-.4477153-1-1-1z"/><circle id="Oval" cx="9" cy="11" r="1"/><path id="Shape" d="m60 53c0-2.7614237-2.2385763-5-5-5s-5 2.2385763-5 5 2.2385763 5 5 5c2.7600532-.0033061 4.9966939-2.2399468 5-5zm-8 0c0-1.6568542 1.3431458-3 3-3s3 1.3431458 3 3-1.3431458 3-3 3-3-1.3431458-3-3z"/><path id="Shape" d="m47 53c0-1.6568542-1.3431458-3-3-3s-3 1.3431458-3 3 1.3431458 3 3 3 3-1.3431458 3-3zm-4 0c0-.5522847.4477153-1 1-1s1 .4477153 1 1-.4477153 1-1 1-1-.4477153-1-1z"/><path id="Shape" d="m41 36c-1.0702387-.0315929-2.1061138.3796808-2.8632165 1.1367835s-1.1683764 1.7929778-1.1367835 2.8632165c0 .5522847.4477153 1 1 1s1-.4477153 1-1c-.0342778-.5412774.1662515-1.0710921.5503331-1.4540249s.9144946-.5818741 1.4556669-.5459751c.5522847-.0016569.9986568-.4507153.9969999-1.003-.0016568-.5522847-.4507152-.9986568-1.0029999-.997z"/><path id="Shape" d="m6 50c-.55228475 0-1 .4477153-1 1v2c0 .5522847.44771525 1 1 1s1-.4477153 1-1v-2c0-.5522847-.44771525-1-1-1z"/><path id="Shape" d="m5 59c0 .5522847.44771525 1 1 1s1-.4477153 1-1v-2c0-.5522847-.44771525-1-1-1s-1 .4477153-1 1z"/><path id="Shape" d="m8 56h2c.5522847 0 1-.4477153 1-1s-.4477153-1-1-1h-2c-.55228475 0-1 .4477153-1 1s.44771525 1 1 1z"/><path id="Shape" d="m4 54h-2c-.55228475 0-1 .4477153-1 1s.44771525 1 1 1h2c.55228475 0 1-.4477153 1-1s-.44771525-1-1-1z"/></g></svg>