<svg width="18" height="16" viewBox="0 0 18 16" fill="none" xmlns="http://www.w3.org/2000/svg">
<path d="M15.4116 0.752568C14.5605 0.269816 13.5926 0.0146484 12.6125 0.0146484C12.186 0.0146484 11.7608 0.061603 11.3488 0.154256C10.9477 0.244425 10.5571 0.378305 10.1878 0.552156C9.75797 0.754496 9.35547 1.01279 8.99505 1.3157C8.63466 1.01282 8.23216 0.754496 7.80235 0.552186C7.43302 0.378334 7.0424 0.244454 6.64133 0.154285C6.2293 0.0616614 5.80413 0.0146776 5.37759 0.0146776C4.35459 0.0146776 3.35401 0.294067 2.48408 0.822664C1.62776 1.34302 0.942617 2.07726 0.502779 2.94599C0.00146872 3.93607 -0.113742 5.03417 0.160333 6.20975C0.350691 7.02633 0.721569 7.87604 1.32745 8.88385C2.18222 10.3058 3.35589 11.6617 4.81583 12.9143C4.99047 13.0641 5.1666 13.2181 5.35306 13.3811C6.1489 14.0767 7.05091 14.8651 8.01232 15.4626C8.30514 15.6446 8.64555 15.7408 8.99672 15.7408C9.33681 15.7408 9.66887 15.6502 9.95708 15.4787C11.6029 14.4995 13.1077 13.2701 14.4299 11.8246C15.7878 10.3401 17.2476 8.54813 17.7789 6.51407C17.8958 6.06623 17.9636 5.62319 17.9803 5.19724C18.0158 4.29137 17.8261 3.46418 17.4165 2.73854C16.9555 1.92178 16.2622 1.23506 15.4116 0.752568ZM16.6559 5.15098C16.6418 5.50967 16.5831 5.86599 16.4921 6.21425C16.0272 7.9942 14.6757 9.64114 13.4269 11.0063C12.2187 12.3273 10.815 13.4888 9.25068 14.4195C9.17309 14.4657 9.08486 14.489 8.99678 14.489C8.90756 14.489 8.81849 14.4651 8.74093 14.4169C7.66554 13.7486 6.6455 12.7929 5.70705 11.9877C4.45003 10.9093 3.32019 9.66329 2.48005 8.26576C1.60889 6.81674 0.877494 5.10739 1.69845 3.48592C2.37468 2.15031 3.80316 1.26632 5.37759 1.26632C6.69516 1.26632 7.86815 1.85108 8.62148 2.76074C8.71683 2.87584 8.85595 2.9334 8.99508 2.9334C9.13421 2.9334 9.27333 2.87586 9.36865 2.76074C10.122 1.85105 11.295 1.26632 12.6126 1.26632C14.1204 1.26632 15.5376 2.07071 16.247 3.32738C16.5648 3.89051 16.6807 4.51723 16.6559 5.15098Z" fill="#FFA21F"/>
<path d="M8.99673 15.7554C8.64243 15.7554 8.29909 15.6583 8.00382 15.4747C7.04123 14.8765 6.13879 14.0877 5.34255 13.3918C5.15606 13.2287 4.97996 13.0748 4.80545 12.9251C3.34421 11.6714 2.16951 10.3142 1.314 8.89103C0.707316 7.8819 0.335942 7.03088 0.145244 6.21284C-0.129604 5.03401 -0.0139912 3.93275 0.488804 2.93964C0.92988 2.06848 1.61694 1.33217 2.4757 0.810323C3.34814 0.280208 4.35159 0 5.37757 0C5.80528 0 6.23166 0.0471006 6.64489 0.140016C7.04711 0.230448 7.43884 0.364708 7.80926 0.539057C8.23517 0.739526 8.63405 0.994197 8.99506 1.29611C9.3561 0.994197 9.75501 0.739526 10.1809 0.539057C10.5513 0.364679 10.9431 0.230448 11.3453 0.140016C11.7584 0.0471006 12.1848 0 12.6126 0C13.5955 0 14.5661 0.255898 15.4196 0.740023C16.2726 1.22386 16.9678 1.91257 17.4302 2.73169C17.841 3.45967 18.0314 4.28937 17.9958 5.19781C17.979 5.62478 17.9111 6.06882 17.7939 6.51759C17.2618 8.55469 15.8007 10.3483 14.4416 11.8342C13.1184 13.2808 11.6124 14.5111 9.96535 15.491C9.67472 15.664 9.33979 15.7554 8.99673 15.7554ZM5.37754 0.0292187C4.3575 0.0292187 3.35983 0.307819 2.49241 0.834896C1.63847 1.35379 0.955279 2.08595 0.516679 2.95223C0.0169153 3.93936 -0.0979245 5.03427 0.175408 6.20656C0.365426 7.02164 0.735747 7.87007 1.34085 8.87656C2.19476 10.297 3.36741 11.6519 4.82621 12.9035C5.00088 13.0533 5.17697 13.2072 5.36343 13.3702C6.15887 14.0655 7.06035 14.8534 8.02081 15.4503C8.31103 15.6308 8.6485 15.7261 8.9967 15.7261C9.33392 15.7261 9.66315 15.6363 9.9488 15.4663C11.5932 14.4879 13.0969 13.2595 14.4181 11.815C15.7748 10.3318 17.2333 8.54163 17.7638 6.51055C17.8805 6.06371 17.9482 5.62166 17.9648 5.19667C18.0002 4.29346 17.8111 3.46873 17.4028 2.74539C16.9431 1.93095 16.2518 1.24615 15.4036 0.765034C14.5549 0.283626 13.5898 0.0291895 12.6125 0.0291895C12.1872 0.0291895 11.7632 0.0760272 11.3524 0.168417C10.9525 0.258323 10.563 0.391823 10.1947 0.565178C9.76719 0.766407 9.36702 1.02257 9.00533 1.32656L8.99503 1.33521L8.98472 1.32656C8.62307 1.0226 8.22292 0.766437 7.7954 0.565207C7.42712 0.391853 7.03758 0.258381 6.63769 0.168446C6.22681 0.0760564 5.80284 0.0292187 5.37754 0.0292187ZM8.99673 14.5036C8.90225 14.5036 8.81086 14.4778 8.73237 14.4291C7.86123 13.8877 7.03842 13.1684 6.24268 12.473C6.05396 12.308 5.8757 12.1522 5.69657 11.9985C4.33947 10.8342 3.25269 9.58077 2.46654 8.27299C1.65555 6.92391 0.833726 5.15991 1.68448 3.47957C2.36971 2.12619 3.81935 1.25167 5.37757 1.25167H5.3776C6.65745 1.25167 7.84422 1.79841 8.63368 2.7517C8.7216 2.85786 8.85333 2.91875 8.99509 2.91875C9.13684 2.91875 9.26858 2.85788 9.3565 2.7517C10.146 1.79841 11.3328 1.25167 12.6126 1.25167C14.1193 1.25167 15.5513 2.06372 16.2607 3.32045C16.5599 3.8508 16.6981 4.46684 16.6713 5.15147C16.6579 5.49312 16.6027 5.85184 16.5071 6.21769C16.0421 7.99805 14.695 9.64224 13.4386 11.0158C12.2012 12.3686 10.7949 13.518 9.25886 14.4318C9.18006 14.4788 9.08939 14.5036 8.99673 14.5036ZM5.37757 1.28089C3.83119 1.28089 2.39254 2.14889 1.71241 3.49219C0.867819 5.16032 1.68615 6.91567 2.49346 8.25853C3.27803 9.56361 4.36273 10.8146 5.71739 11.9768C5.89661 12.1306 6.07493 12.2865 6.26371 12.4515C7.05853 13.1462 7.88038 13.8646 8.74941 14.4047C8.82283 14.4503 8.90834 14.4743 8.99676 14.4743C9.0836 14.4743 9.16856 14.4511 9.2424 14.4071C10.7759 13.4948 12.1798 12.3474 13.4152 10.9967C14.6692 9.62576 16.0136 7.98507 16.4771 6.21071C16.5721 5.84679 16.6271 5.49003 16.6404 5.15039C16.667 4.47099 16.53 3.85994 16.2333 3.33421C15.5293 2.08686 14.1081 1.28089 12.6126 1.28089C11.3423 1.28089 10.1644 1.82354 9.38085 2.76973C9.28705 2.88301 9.14644 2.948 8.99509 2.948C8.84374 2.948 8.70313 2.88301 8.6093 2.76973C7.82578 1.82354 6.64783 1.28089 5.37757 1.28089Z" fill="#FFA21F"/>
<path d="M8.79027 3.22027C8.67559 3.13594 8.539 3.06595 8.40765 3.01279C8.31485 2.97522 8.28878 2.92324 8.24328 2.83225C8.14125 2.62819 7.87211 2.58873 7.70033 2.46849C7.51237 2.33692 7.33531 2.20424 7.13044 2.10473C6.8899 1.98789 6.63816 1.89851 6.41369 1.75175C6.2505 1.64504 6.04115 1.60993 5.8667 1.52271C5.69975 1.43924 5.52915 1.35238 5.3507 1.29502C5.05902 1.20127 4.73376 1.22893 4.43591 1.2573C4.36477 1.26407 4.31881 1.31218 4.25537 1.33813C4.17852 1.36958 4.10835 1.37329 4.03846 1.42571C3.95246 1.49021 3.85575 1.52023 3.76227 1.57121C3.64021 1.63779 3.54078 1.7479 3.43624 1.83797C3.24026 2.00681 3.03376 2.08672 2.81649 2.21251C2.70257 2.27846 2.61988 2.40643 2.52818 2.49813C2.20388 2.82243 1.92943 3.1729 1.72386 3.58403C1.53369 3.96436 1.49078 4.44882 1.49078 4.86662C1.49078 5.4 1.75325 5.88117 1.82491 6.39712C1.84918 6.57189 1.85789 6.7549 1.9273 6.91851C2.00915 7.11144 2.10069 7.30319 2.18867 7.49379C2.28975 7.71281 2.48421 7.89545 2.62518 8.08929C2.78131 8.30397 2.96444 8.5033 3.10481 8.72789C3.21126 8.89821 3.2912 9.09555 3.36348 9.28296C3.43729 9.47431 3.54881 9.63838 3.64776 9.81648C3.72946 9.96355 3.79459 10.1342 3.91047 10.2584C4.0507 10.4086 4.19465 10.556 4.34025 10.7016C4.70407 11.0654 5.03429 11.4537 5.42345 11.7943C5.82004 12.1413 6.2341 12.4888 6.7047 12.732C7.091 12.9316 7.4752 13.1159 7.7906 13.4245C7.92952 13.5604 8.10046 13.6504 8.24059 13.7882C8.37039 13.9159 8.50148 14.0332 8.65555 14.1318C8.94338 14.316 9.46156 14.4763 9.78186 14.3002C9.92303 14.2225 10.0291 14.0784 10.1443 13.9688C10.2501 13.868 10.3677 13.7771 10.4838 13.6885C10.7122 13.5142 10.9114 13.3115 11.1426 13.1388C11.3769 12.9639 11.6559 12.8043 11.8566 12.5932C12.0493 12.3906 12.1691 12.1482 12.3929 11.9748C12.6513 11.7746 12.8913 11.5225 13.1285 11.2971C13.3796 11.0585 13.5982 10.7877 13.829 10.5305C14.3069 9.99823 14.7475 9.42402 15.276 8.93806C15.4808 8.74977 15.5682 8.54402 15.726 8.32371C15.8852 8.10144 16.05 7.85691 16.1625 7.60696C16.2668 7.37515 16.3202 7.09361 16.37 6.84441C16.4188 6.60014 16.4556 6.35289 16.4899 6.10611C16.5423 5.72848 16.522 5.291 16.4832 4.91243C16.4376 4.46831 16.5005 4.0368 16.405 3.59481C16.2906 3.06482 15.7825 2.76096 15.4579 2.37149C15.2819 2.16028 15.0949 2.00626 14.8341 1.91611C14.5931 1.83278 14.3746 1.71653 14.151 1.59816C13.9592 1.49659 13.6831 1.38479 13.4626 1.40685C13.1698 1.43612 12.8744 1.61699 12.599 1.71537C12.3466 1.80552 12.0275 1.83496 11.7596 1.83797C11.5474 1.84035 11.3546 1.89149 11.1507 1.9471C10.9616 1.99866 10.7327 1.99692 10.5633 2.10473C10.3736 2.22545 10.1912 2.35256 10.0405 2.52238C9.74462 2.85596 9.37755 3.16453 9.03278 3.44391C8.82089 3.61561 8.4939 3.89929 8.19613 3.89929C8.1052 3.89929 8.03391 3.90725 7.97113 3.82654C7.86254 3.68691 7.73237 3.56612 7.62489 3.4264C7.53517 3.30976 7.38454 3.18129 7.27056 3.08554C7.13394 2.97078 6.97744 2.8599 6.83404 2.75411C6.48725 2.49828 6.05761 2.27609 5.63228 2.19634C5.43641 2.15962 5.26042 2.08587 5.05565 2.08048C4.82954 2.07453 4.60638 2.05623 4.37932 2.05623C4.02175 2.05623 3.69252 2.37667 3.44297 2.60187C3.04512 2.9609 2.60918 3.27499 2.49046 3.82115C2.40781 4.20133 2.30763 4.58201 2.23717 4.96632C2.20183 5.15908 2.15283 5.34841 2.12669 5.54295C2.10261 5.72225 2.14105 5.90608 2.10918 6.08455C2.07753 6.26181 2.07871 6.46485 2.0728 6.64502C2.06672 6.83064 2.0376 6.987 2.07415 7.17584C2.12002 7.41284 2.20217 7.59906 2.30453 7.8131C2.37025 7.95051 2.51925 8.1537 2.63596 8.25096C2.9581 8.51941 3.27233 8.79797 3.59521 9.06471C3.76925 9.20848 3.89643 9.37402 4.04789 9.5376C4.21557 9.71868 4.40674 9.87986 4.59488 10.0401C4.7558 10.1772 4.9032 10.3189 5.08125 10.4362C5.2844 10.5701 5.41239 10.7625 5.59995 10.9078C5.8209 11.0789 6.03116 11.2432 6.27897 11.3739C6.42172 11.4492 6.5332 11.5644 6.66967 11.6488C6.78803 11.7219 6.9171 11.7754 7.04421 11.8306C7.29834 11.9411 7.53762 12.1233 7.77174 12.2712C8.02171 12.4291 8.21986 12.6169 8.42786 12.8249C8.63965 13.0367 8.79511 13.2181 9.07859 13.3315C9.29976 13.42 9.50591 13.4874 9.74683 13.4783C9.94697 13.4708 10.1429 13.247 10.2952 13.1348C10.4268 13.0378 10.5106 12.8953 10.6077 12.767C10.7037 12.6401 10.8351 12.5274 10.954 12.4221C11.9789 11.5143 12.892 10.4922 13.8614 9.52278C14.4268 8.9574 14.8578 8.30425 15.2208 7.59349C15.418 7.20719 15.6809 6.86334 15.8499 6.45909C15.9604 6.19496 16.0407 5.83197 16.0628 5.5443C16.0823 5.29054 16.1081 5.00926 16.0534 4.76019C15.9859 4.45264 15.7524 4.23523 15.5859 3.97743C15.2793 3.50269 15.0349 2.97644 14.6293 2.57088C14.2646 2.20613 13.7784 1.99338 13.2618 2.10608C12.9761 2.16842 12.7089 2.25731 12.471 2.43077C12.2413 2.59828 12.0243 2.7767 11.8108 2.96428C11.3957 3.32911 10.914 3.40326 10.4151 3.58942C9.85295 3.79917 9.40003 4.23112 8.88997 4.5352C8.59731 4.70967 8.31001 4.87893 7.95362 4.84237C7.79808 4.82642 7.67671 4.71963 7.5683 4.61603C7.4413 4.49467 7.30731 4.3851 7.17625 4.26844C6.68497 3.83115 6.24559 3.32656 5.62689 3.07476C5.34674 2.96075 5.02608 2.87442 4.735 2.79992C4.3603 2.70401 3.94549 2.7718 3.65988 3.04108C3.454 3.2352 3.33674 3.44047 3.33384 3.72684C3.33113 3.99581 3.33384 4.26426 3.33384 4.5325C3.33384 4.66973 3.34166 4.80799 3.3069 4.94207C3.2696 5.08594 3.1974 5.21593 3.15331 5.35703C3.08176 5.586 2.99799 5.84567 2.99433 6.08725C2.98674 6.58816 2.97313 7.06038 3.18834 7.53152C3.32842 7.83818 3.60903 8.10012 3.83233 8.34527C4.07854 8.61556 4.34569 8.85871 4.61914 9.10108C4.87711 9.32974 5.10462 9.58226 5.3763 9.79762C5.69783 10.0525 6.02537 10.3154 6.32208 10.5992C6.58868 10.8542 6.8467 11.1173 7.11831 11.3672C7.25979 11.4973 7.43248 11.588 7.58447 11.7053C7.72507 11.8139 7.84905 11.9259 8.02772 11.964C8.27339 12.0165 8.52964 12.0307 8.76333 12.1338C9.00611 12.2409 9.2091 12.4263 9.45043 12.538C9.67499 12.6419 9.97288 12.8099 10.2022 12.6188C10.4779 12.3891 10.6973 12.0805 10.9513 11.8266C11.071 11.7069 11.1939 11.6059 11.3299 11.506C11.3532 11.4888 11.4138 11.4539 11.3878 11.4413C11.1991 11.3495 10.7212 11.4614 10.5525 11.479C9.93226 11.5437 9.31448 11.6371 8.69057 11.6622C8.04858 11.6881 7.41453 11.6417 6.78015 11.5437C6.21008 11.4556 5.64776 11.3189 5.1028 11.1314C4.9723 11.0865 4.56682 10.9994 4.69997 11.0358C4.94003 11.1012 5.3468 11.0696 5.55953 11.0614C6.31363 11.0322 7.0739 10.9763 7.81755 10.8431C8.96415 10.6377 10.083 10.2872 11.2261 10.0603C11.3941 10.027 11.4774 10.0739 11.6168 10.1695C11.729 10.2463 11.5762 10.3561 11.5091 10.4201C11.1665 10.7467 10.6931 10.9669 10.2574 11.1341C9.9164 11.265 9.53252 11.3637 9.23622 11.5881C9.16981 11.6384 9.38783 11.661 9.46929 11.6784C9.83044 11.7557 10.196 11.8353 10.5633 11.8778C10.7969 11.9048 10.9721 11.8882 11.1992 11.8266C11.3571 11.7838 11.5281 11.7484 11.6802 11.6865C11.6864 11.6839 11.6667 11.6859 11.6599 11.6865C11.2517 11.72 11.4038 11.7186 10.8354 11.735C10.1014 11.7561 9.36551 11.7605 8.63129 11.7431C8.54681 11.7411 8.46231 11.7381 8.37801 11.7323C8.33952 11.7296 8.25781 11.746 8.26484 11.708C8.26784 11.6918 8.29257 11.6897 8.30795 11.6838C8.46233 11.6242 8.62234 11.5801 8.7768 11.5208C9.4836 11.2493 10.1891 10.9285 10.8273 10.5184C10.8367 10.5124 11.2155 10.2944 11.1588 10.1722C11.1093 10.0656 10.7531 10.1267 10.7061 10.1317C10.3684 10.1679 10.0387 10.2496 9.70911 10.3284C9.11749 10.4699 8.526 10.6114 7.93341 10.7488C7.8399 10.7705 7.56018 10.833 7.65587 10.8256C8.00538 10.7983 8.3634 10.7304 8.70405 10.6545C8.9791 10.5932 12.003 9.76258 11.8782 9.48371C11.8252 9.36511 11.4258 9.4288 11.3824 9.43386C10.7969 9.50213 10.2232 9.65829 9.66599 9.84612C9.25019 9.98628 8.83611 10.149 8.45076 10.3608C8.32612 10.4293 8.18585 10.5642 8.34837 10.3392C8.48917 10.1443 8.64215 9.95797 8.7768 9.75855C8.81995 9.69464 8.92659 9.54239 8.84955 9.53894C8.47642 9.52224 8.22317 10.2479 8.12607 10.4793C8.04948 10.6619 7.98605 10.8494 7.90916 11.0317C7.90607 11.039 7.88327 11.1085 7.9132 11.0398C8.00224 10.8355 8.06129 10.6105 8.13281 10.4012C8.39285 9.64007 8.73612 8.90264 8.91691 8.11623C9.12207 7.22385 9.31348 6.1999 9.07859 5.29236C9.03698 5.1316 9.01125 5.11734 8.9735 5.28832C8.84755 5.85881 8.76754 6.44056 8.66498 7.01551C8.5708 7.54345 8.46922 8.06992 8.36454 8.59586C8.33579 8.74029 8.25069 8.99679 8.26484 9.16306C8.26852 9.20636 8.30164 9.26296 8.34298 9.20213C8.41929 9.08982 8.44135 8.89507 8.46019 8.771C8.56262 8.09641 8.5266 7.40075 8.49792 6.72181C8.48743 6.47372 8.488 6.21293 8.45076 5.96599C8.43541 5.86419 8.40066 5.95008 8.38609 5.99833C8.02646 7.1896 7.67255 10.9244 7.84853 9.69253C7.93904 9.05898 8.11875 8.44073 8.21499 7.80636C8.22517 7.73922 8.51237 5.89863 8.34837 5.89863C8.28328 5.89863 8.23917 6.01533 8.22442 6.05087C8.10433 6.34018 8.02612 6.64788 7.91724 6.94141C7.52834 7.98991 7.00093 8.98375 6.64004 10.0428C6.61608 10.1131 6.52855 10.2711 6.60231 10.2624C6.66024 10.2556 6.69933 10.1163 6.71009 10.0832C6.95134 9.34201 7.0802 8.54862 7.23687 7.78615C7.29091 7.52318 7.37127 7.24371 7.39181 6.97375C7.39244 6.96545 7.40198 6.76611 7.32714 6.82016C7.19283 6.91716 7.13085 7.28986 7.1008 7.41026C6.96327 7.96133 6.85339 8.52633 6.77476 9.08896C6.77042 9.12004 6.68699 9.84089 6.8071 9.49583C6.89699 9.23755 6.93883 8.95627 6.98628 8.68882C7.1129 7.97516 7.20165 7.2581 7.19511 6.53185C7.19099 6.07411 7.15955 5.61255 7.04152 5.16841C7.02576 5.10911 7.00288 5.0519 6.98089 4.99462C6.96474 4.95252 6.95161 4.87647 6.90679 4.88144C6.82922 4.89006 6.67713 5.23196 6.66967 5.24655C6.45513 5.66671 6.28155 6.10323 6.12538 6.54801C5.9975 6.9122 5.88546 7.28193 5.7697 7.65008C5.73618 7.75667 5.64599 7.94068 5.65249 8.06099C5.65468 8.10161 5.73727 8.10285 5.75623 8.0839C5.80989 8.03023 5.83007 7.83173 5.83437 7.80367C5.8536 7.67806 5.91078 7.20678 5.92059 7.08961C5.97762 6.40924 5.87825 5.68096 5.69156 5.0256C5.69023 5.02093 5.61322 4.6672 5.52046 4.72247C5.4585 4.75937 5.35811 4.97523 5.34666 4.99731C5.24157 5.20008 5.16336 5.36031 5.07451 5.57529C4.7884 6.26758 4.53197 7.02165 4.38875 7.75921C4.38234 7.79224 4.35362 7.97729 4.42782 7.82792C4.56561 7.55053 4.64943 7.23383 4.71614 6.93333C4.85677 6.29981 4.94042 5.6251 4.86164 4.9771C4.86103 4.97207 4.85107 4.77455 4.79024 4.78714C4.61238 4.82393 4.40136 5.13628 4.30253 5.25733C3.96778 5.66733 3.77155 6.24562 3.80673 6.77974C3.81118 6.84726 3.85885 7.12775 4.01287 7.06267C4.24516 6.96452 4.3626 6.47089 4.43052 6.26509C4.54644 5.91382 4.62232 5.54683 4.69997 5.18593C4.76894 4.86536 4.87194 4.51022 4.82931 4.17682C4.8141 4.0579 4.76473 3.85862 4.67033 3.7713C4.56258 3.67163 4.44748 3.97945 4.43321 4.0165C4.17069 4.69813 4.16318 5.40096 4.34834 6.10072C4.40041 6.2975 4.47556 6.74276 4.71883 6.83633C5.01396 6.94984 5.32037 6.64708 5.45444 6.43215C5.6517 6.1159 5.77782 5.74505 5.89769 5.39475C6.01329 5.05694 6.12644 4.70954 6.19005 4.35736C6.21725 4.20673 6.27848 3.91728 6.16176 3.77669C6.06423 3.65921 5.92479 3.98945 5.87479 4.13371C5.53753 5.1067 5.33271 6.14609 5.8694 7.08692C6.15622 7.58972 6.58166 8.06573 7.11023 8.31967C7.86368 8.68164 8.77388 8.55042 9.49759 8.18225C10.2012 7.8243 10.8085 7.25783 11.3393 6.68274C11.737 6.25188 12.0892 5.78612 12.2878 5.23039C12.414 4.87723 12.4912 4.48508 12.5303 4.11216C12.5473 3.94967 12.5837 3.48651 12.339 3.41966C12.0645 3.34468 11.6048 3.76756 11.443 3.88716C10.9484 4.25281 10.5046 4.64176 10.1321 5.13608C9.97339 5.34678 9.82822 5.56767 9.68755 5.79085C9.45925 6.15306 9.16373 6.60536 9.09745 7.05054C8.99726 7.7235 9.55009 8.48547 10.0917 8.82624C10.4315 9.04001 10.9231 9.14168 11.3231 9.09973C11.7648 9.05343 12.115 8.69163 12.4212 8.41263C12.9041 7.97263 13.3665 7.50971 13.7186 6.95489C13.896 6.67533 14.096 6.30932 14.147 5.97273C14.2638 5.20166 13.1551 6.08506 13.0355 6.17078C12.1961 6.77259 11.1165 7.59232 11.245 8.7737C11.2734 9.03515 11.3745 9.40136 11.6775 9.46754C12.1137 9.56284 12.6494 9.1879 12.9668 8.95423C13.5132 8.55198 13.9845 8.04193 14.3841 7.49649C14.732 7.02158 15.0281 6.4964 15.0968 5.90267C15.1518 5.4271 15.0211 4.77978 14.403 4.83833C14.0607 4.87076 13.7733 5.11012 13.5488 5.35164C13.0433 5.89557 12.6364 6.59151 12.2932 7.2459C12.094 7.62565 11.9995 7.9895 11.9563 8.41398C11.9462 8.51369 11.841 9.08776 12.0345 9.17249C12.2593 9.2709 12.7868 8.91993 12.9196 8.83971C13.4671 8.50903 13.9787 8.10376 14.4245 7.64469C14.9792 7.07361 15.4736 6.25533 15.2706 5.4217C14.9838 4.24342 13.4725 4.48729 12.634 4.85719C11.8611 5.19819 11.1841 5.76823 10.6172 6.38634C10.2499 6.78672 9.98354 7.2165 9.83036 7.73495C9.76502 7.95611 9.66523 8.27245 9.75491 8.50694C9.88257 8.84069 10.3094 8.60057 10.4932 8.49077C11.6533 7.79769 12.6653 6.66252 13.018 5.33547C13.21 4.61307 12.5562 4.24478 11.9577 4.1135C11.2912 3.96731 10.5216 4.03825 9.95566 4.46379C9.80814 4.57471 9.70415 4.75886 9.66869 4.93938C9.6097 5.2397 9.96566 5.32607 10.1941 5.34356C11.2319 5.42297 12.2165 4.80135 12.8402 4.01515C13.0831 3.70884 13.3947 3.32147 13.5111 2.93869C13.5731 2.7347 13.4277 2.42814 13.2026 2.39035C12.8637 2.33348 12.446 2.62672 12.2015 2.808C11.6157 3.24244 11.1173 3.80145 10.6374 4.34523C10.2181 4.8203 9.80115 5.30555 9.52588 5.88246C9.36096 6.22811 9.09791 6.81812 9.23218 7.21895C9.41479 7.76411 10.259 7.01731 10.4339 6.86597C10.9491 6.42012 11.62 5.68317 11.342 4.9515C11.2608 4.73785 11.1081 4.4112 10.8678 4.32637C10.6886 4.26314 10.12 4.44358 10.31 4.44358C10.4086 4.44358 10.6092 4.33031 10.6845 4.29808C10.9535 4.18292 11.2216 4.06358 11.4821 3.93027C11.7524 3.79197 12.001 3.63046 12.2123 3.41158C12.4735 3.14109 12.0313 2.90458 11.8432 2.73525C11.754 2.65496 11.6722 2.57129 11.5495 2.61804C11.3735 2.68506 11.2739 2.82821 11.1399 2.95081C10.8937 3.17597 10.6464 3.39387 10.31 3.46277C10.2081 3.48364 10.147 3.4533 10.081 3.37655C10.0431 3.33254 9.89921 3.27208 9.93275 3.20275C9.99989 3.064 10.1997 2.95306 10.3019 2.83495C10.4041 2.71681 10.4826 2.648 10.6118 2.5628C10.8044 2.43574 10.9305 2.23767 11.1911 2.28796C11.4198 2.33209 11.9842 2.56432 11.893 2.88345C11.8529 3.02377 11.8659 3.19977 12.0251 3.26607C12.1358 3.3122 12.2683 3.2641 12.3767 3.23913C12.5631 3.19617 12.7414 3.16283 12.9331 3.15155C13.3131 3.12921 13.7042 3.10968 14.085 3.12461C14.2347 3.13048 14.3387 3.16859 14.4488 3.27146C14.6853 3.49248 14.4407 3.88496 14.4407 4.15392C14.4407 4.2853 14.438 4.41654 14.4528 4.54732C14.4675 4.67658 14.5247 4.64956 14.6401 4.65106C14.7158 4.65205 14.8192 4.69101 14.8664 4.61064C14.9434 4.47966 14.9809 4.2871 14.8934 4.15527C14.5557 3.64676 13.7549 3.75332 13.3885 4.1647C13.3398 4.21932 13.1294 4.41386 13.3077 4.45167C13.7417 4.54374 14.1869 4.3344 14.535 4.10138C14.7097 3.98444 14.7877 4.13143 14.7775 4.30886C14.7511 4.77109 14.511 5.14674 14.3626 5.56855C14.3205 5.68818 14.2986 5.82777 14.3828 5.93231C14.433 5.99468 14.5305 6.01928 14.5458 6.10476C14.5632 6.20152 14.5584 6.33651 14.5269 6.4308C14.4877 6.5484 14.6903 6.23549 14.7263 6.11689C14.7502 6.03839 14.8441 5.709 14.7398 5.64265C14.6431 5.58112 14.3884 5.7205 14.3262 5.74908C13.8703 5.95846 13.5099 6.29021 13.1473 6.6302C12.8152 6.94165 12.3291 7.3117 12.1706 7.76459C12.0864 8.00508 12.6204 7.90653 12.6973 7.88989C12.9711 7.83067 13.3902 7.69373 13.5434 7.42912C13.5691 7.38472 13.621 7.20542 13.6189 7.20817C13.4462 7.42954 13.3068 7.70624 13.1716 7.95186C13.0595 8.15552 13.0115 8.35315 12.9735 8.58104C12.9104 8.95961 12.8445 9.2973 12.5923 9.60361C12.4734 9.74797 12.324 9.87306 12.2204 10.0293C12.1344 10.1591 12.1052 10.3378 12.0534 10.4834C11.9917 10.6565 11.9532 10.8295 11.8674 10.994C11.7589 11.202 11.6214 11.388 11.4942 11.5841C11.4534 11.6471 11.4912 11.6154 11.5144 11.5868C11.6264 11.4491 11.7126 11.2899 11.8055 11.1395C11.9447 10.9139 12.0897 10.6966 12.2527 10.4874C12.3495 10.3633 12.4928 10.2326 12.5545 10.0832C12.5987 9.97639 12.3134 10.1804 12.3039 10.1856C12.0418 10.3313 11.7081 10.5794 11.4484 10.3244C11.2369 10.1167 11.0303 9.92586 10.7694 9.77741C10.6445 9.7063 10.4993 9.62863 10.3558 9.60092C10.2314 9.5769 10.1129 9.64386 10.0001 9.68445C9.88796 9.72479 9.69694 9.81217 9.59324 9.71139C9.3739 9.49824 9.56955 9.23837 9.68216 9.02294C9.69294 9.00232 9.86485 8.64086 9.82767 8.63762C9.6202 8.61958 9.48082 8.86806 9.29954 8.88417C9.24618 8.88892 9.16394 8.80965 9.12978 8.7737C9.10886 8.75167 9.11591 8.74445 9.13921 8.72115C9.54028 8.32009 9.86946 7.84482 10.186 7.37658C10.5161 6.88848 10.8871 6.36501 11.0429 5.78546C11.1068 5.54794 11.1219 5.27116 11.1359 5.0256C11.1422 4.91439 11.1664 4.73053 11.024 4.6807C10.8129 4.60679 10.5658 4.77855 10.4097 4.89357C10.2256 5.02924 10.0468 5.17998 9.88156 5.33817C9.72873 5.48449 9.70223 5.61183 9.67677 5.82588C9.65247 6.03018 9.44465 7.03796 9.91659 6.84711C10.1353 6.75866 10.3254 6.50401 10.4501 6.31359C10.4595 6.2993 10.5819 6.14665 10.5417 6.11689C10.4505 6.0493 10.1922 6.10061 10.0998 6.14249C10.0023 6.1867 9.75167 6.46748 9.97048 6.23275C10.0106 6.18974 10.0907 6.06039 10.151 6.03875C10.3034 5.98403 10.0658 6.35978 9.96778 6.48873C9.51194 7.08866 8.91411 7.58875 8.35241 8.08255C7.77475 8.59038 7.17169 9.07155 6.61309 9.60092C6.42476 9.77939 6.18977 9.98745 6.05532 10.2166C6.01424 10.2866 6.01349 10.3845 6.06341 10.451C6.27932 10.7389 6.47734 10.6659 6.7788 10.5224C7.06391 10.3868 7.32884 10.225 7.59659 10.059C7.69972 9.99506 7.82728 9.89563 7.95631 9.88789C8.18653 9.87407 8.00083 10.0886 7.94015 10.1573C7.88303 10.2221 7.8029 10.2943 7.76904 10.3769C7.76541 10.3858 7.77646 10.4686 7.77443 10.4686C7.71932 10.4686 7.58724 10.3544 7.55483 10.3338C7.4219 10.2495 7.28615 10.1747 7.14122 10.1129C6.94373 10.0287 6.84562 10.0364 6.76398 9.83399C6.54677 9.29532 6.29305 8.83553 5.76431 8.54736C5.32856 8.30986 4.88606 7.98927 4.69189 7.51535C4.49329 7.03062 4.29422 6.5382 4.11256 6.04683C4.10227 6.01899 4.09282 5.99075 4.08562 5.96195C4.07065 5.9021 4.09108 5.93386 4.10583 5.96465C4.24669 6.25863 4.32674 6.5858 4.44938 6.88752C4.69171 7.48369 5.09827 8.09591 5.8209 8.11354C6.07827 8.11981 6.69236 7.9347 6.62387 7.57194C6.5716 7.2951 6.15429 7.1172 5.9179 7.06536C5.65883 7.00855 5.37569 6.95849 5.10954 6.96028C4.844 6.96206 4.82123 7.13451 4.82123 7.36446C4.82123 7.48692 4.79256 8.27707 4.98155 8.27117C5.16941 8.2653 5.40748 8.13898 5.573 8.07581C5.59855 8.06606 6.40864 7.73491 6.39214 7.71475C6.37085 7.68872 5.52861 8.42918 5.49216 8.46652C5.31075 8.65237 5.24732 8.78905 5.3736 9.02025C5.47651 9.20865 5.59636 9.29203 5.7953 9.34628C5.98458 9.39791 6.14819 9.51094 6.25068 9.68175C6.30115 9.76588 6.40576 9.8606 6.3625 9.94312C6.28654 10.088 6.15426 10.282 6.20352 10.4551C6.27585 10.7093 6.49106 10.7863 6.71818 10.8606C6.88885 10.9165 7.06211 11.0053 7.23283 10.9078C7.34727 10.8424 7.50492 10.718 7.55079 10.5925C7.67849 10.243 7.09733 10.3525 6.95934 10.3716C6.69834 10.4075 6.40715 10.5005 6.14155 10.4901C5.91467 10.4813 6.23307 9.95423 6.24933 9.91887C6.82852 8.65912 7.71326 7.57827 8.36723 6.3594C8.54319 6.03144 8.74383 5.67647 8.68518 5.29236C8.6473 5.04419 8.553 5.02082 8.33624 5.12261C7.87406 5.33963 7.55483 5.81032 7.35139 6.27048C7.30866 6.36712 7.35066 6.42963 7.32714 6.52646C7.27521 6.74027 7.19985 6.89447 7.01188 7.01147C6.89433 7.08464 6.74003 7.15207 6.68045 6.98183C6.63042 6.83888 6.46002 6.44317 6.60096 6.32571C6.82216 6.14138 7.14266 6.02345 7.39989 5.90402C7.54861 5.83497 7.93262 5.74209 7.59929 5.58606C7.41009 5.4975 7.08986 5.57921 6.90545 5.59684C6.57569 5.62836 6.23353 5.68224 5.91521 5.55373C5.49735 5.38504 5.27289 5.05641 5.04083 4.70091C4.85399 4.41469 4.36683 4.12162 4.41435 3.72953C4.42517 3.64032 4.53642 3.39771 4.61509 3.34152C4.70322 3.27857 5.01412 3.66465 5.06912 3.71875C5.18312 3.83089 5.31516 3.97299 5.476 4.01515C5.71626 4.07814 5.78834 3.83015 5.68482 3.63253C5.56147 3.39703 5.16881 3.37171 4.94652 3.34556C4.80154 3.3285 4.64558 3.30672 4.49788 3.31727C4.1898 3.33927 3.96392 3.84299 3.82155 4.06365C3.74214 4.18674 3.6794 4.28305 3.53998 4.3358C3.40855 4.38553 3.26885 4.39606 3.13714 4.44358C2.84786 4.54796 2.73296 4.8653 2.73296 5.16168C2.73296 5.33705 2.80013 5.58874 2.97682 5.66825C3.16112 5.75118 3.3263 5.64118 3.4551 5.52409" stroke="#FFA21F" stroke-linecap="round" stroke-linejoin="round"/>
<path d="M14.2952 8.09469C14.2671 8.36305 14.3012 8.83623 14.0742 9.04047C13.9796 9.12563 13.8723 9.19391 13.7859 9.28837C13.6372 9.45097 13.5242 9.68955 13.3305 9.80572C13.2869 9.8319 13.3022 9.70479 13.3036 9.69254C13.3175 9.56738 13.3999 9.47788 13.4841 9.39076C13.5609 9.31129 13.6366 9.22065 13.7199 9.14825C13.7779 9.09784 13.7688 9.27434 13.7738 9.30857C13.7774 9.33341 13.7647 9.47197 13.7778 9.48507C13.8001 9.50736 13.849 9.35576 13.8506 9.35169C13.914 9.19104 14.0254 8.99285 14.1362 8.85993C14.3602 8.59108 14.487 8.22591 14.6347 7.91415C14.9975 7.14828 15.4562 6.41877 15.788 5.63997C16.0664 4.98642 16.103 4.14771 15.8836 3.46818C15.8411 3.33641 15.7006 3.20238 15.5589 3.17582C15.3712 3.14062 15.1378 3.3926 15.0537 3.53284C14.9043 3.78179 15.3662 3.97908 15.4969 4.12295C15.7171 4.36517 15.4985 5.02951 15.144 5.03909C14.9509 5.0443 15.2215 4.97743 15.2652 4.96095C15.2956 4.9495 15.4036 4.87087 15.3636 4.95556C15.205 5.29135 14.8805 5.60951 14.628 5.86766C13.7678 6.74694 12.7552 7.4493 11.8081 8.22537C11.6868 8.3248 11.5937 8.45162 11.474 8.55276C11.1762 8.80437 10.8278 8.98354 10.4636 9.11861C10.048 9.27272 9.62352 9.373 9.17826 9.33417C8.74923 9.29676 8.35653 9.1262 7.95495 8.98388C7.554 8.84179 7.18542 8.76115 6.75723 8.79392C6.48217 8.81497 6.15636 8.84123 5.91519 8.99197C5.64754 9.15924 5.84496 9.38504 6.04452 9.52009C6.26811 9.67141 6.46679 9.81875 6.66965 9.99703C6.7026 10.026 6.83044 10.0874 6.82055 10.1425C6.80583 10.2245 6.70905 10.2938 6.65753 10.3514C6.56661 10.453 6.41174 10.8079 6.65618 10.835C6.76403 10.847 7.18168 10.9152 7.10617 10.7084C7.05656 10.5725 6.88777 10.4961 6.7707 10.4335C6.55504 10.3184 6.31689 10.2325 6.11458 10.094C5.87436 9.92967 5.75562 9.63531 5.58645 9.40692C5.37867 9.12642 5.06855 8.9504 4.79561 8.74272C4.36884 8.41801 4.04967 8.03451 3.67333 7.65817C3.56086 7.5457 3.48434 7.59593 3.59789 7.58003C3.90564 7.53695 4.20377 7.41919 4.50999 7.36177C4.54173 7.35582 5.09885 7.27287 5.08931 7.29576C5.05082 7.38813 4.76543 7.40977 4.69726 7.42644C4.53955 7.46502 4.2194 7.49007 4.10581 7.62988C4.07051 7.67333 4.20561 7.65817 4.2311 7.65817" stroke="#FFA21F" stroke-linecap="round" stroke-linejoin="round"/>
</svg>
