<svg width="18" height="17" viewBox="0 0 18 17" fill="none" xmlns="http://www.w3.org/2000/svg">
<g clip-path="url(#clip0)">
<path d="M15.4116 1.37488C14.5605 0.89213 13.5926 0.636963 12.6126 0.636963C12.186 0.636963 11.7609 0.683917 11.3488 0.77657C10.9477 0.866739 10.5571 1.00062 10.1878 1.17447C9.758 1.37681 9.3555 1.6351 8.99508 1.93802C8.63469 1.63513 8.23219 1.37681 7.80238 1.1745C7.43305 1.00065 7.04243 0.866768 6.64136 0.776599C6.22933 0.683976 5.80416 0.636992 5.37762 0.636992C4.35462 0.636992 3.35404 0.916382 2.48411 1.44498C1.62779 1.96533 0.942648 2.69957 0.50281 3.5683C0.00149924 4.55838 -0.113712 5.65648 0.160363 6.83207C0.350721 7.64864 0.721599 8.49835 1.32748 9.50617C2.18225 10.9281 3.35592 12.284 4.81586 13.5366C4.9905 13.6864 5.16663 13.8404 5.35309 14.0034C6.14893 14.699 7.05094 15.4874 8.01235 16.0849C8.30517 16.2669 8.64558 16.3631 8.99675 16.3631C9.33684 16.3631 9.6689 16.2725 9.95711 16.101C11.6029 15.1218 13.1077 13.8924 14.4299 12.4469C15.7878 10.9624 17.2476 9.17044 17.7789 7.13638C17.8959 6.68854 17.9637 6.2455 17.9803 5.81955C18.0158 4.91368 17.8261 4.0865 17.4165 3.36085C16.9555 2.5441 16.2622 1.85737 15.4116 1.37488ZM16.6559 5.7733C16.6419 6.13199 16.5831 6.48831 16.4922 6.83657C16.0273 8.61651 14.6757 10.2635 13.427 11.6286C12.2187 12.9496 10.8151 14.1111 9.25072 15.0418C9.17312 15.088 9.08489 15.1113 8.99681 15.1113C8.90759 15.1113 8.81852 15.0874 8.74096 15.0392C7.66557 14.3709 6.64553 13.4152 5.70708 12.61C4.45006 11.5316 3.32022 10.2856 2.48008 8.88807C1.60892 7.43906 0.877524 5.7297 1.69848 4.10824C2.37471 2.77262 3.80319 1.88864 5.37762 1.88864C6.69519 1.88864 7.86818 2.47339 8.62151 3.38306C8.71686 3.49815 8.85598 3.55571 8.99511 3.55571C9.13424 3.55571 9.27336 3.49818 9.36868 3.38306C10.122 2.47336 11.295 1.88864 12.6126 1.88864C14.1205 1.88864 15.5377 2.69303 16.247 3.9497C16.5648 4.51283 16.6807 5.13954 16.6559 5.7733Z" fill="#FFA21F"/>
<path d="M8.99673 16.3777C8.64243 16.3777 8.29909 16.2806 8.00382 16.0971C7.04123 15.4988 6.13879 14.71 5.34255 14.0141C5.15606 13.851 4.97996 13.6971 4.80545 13.5474C3.34421 12.2937 2.16951 10.9365 1.314 9.51334C0.707316 8.50422 0.335942 7.65319 0.145244 6.83515C-0.129604 5.65632 -0.0139912 4.55507 0.488804 3.56195C0.92988 2.6908 1.61694 1.95448 2.4757 1.43264C3.34814 0.902522 4.35159 0.622314 5.37757 0.622314C5.80528 0.622314 6.23166 0.669415 6.64489 0.762331C7.04711 0.852763 7.43884 0.987023 7.80926 1.16137C8.23517 1.36184 8.63405 1.61651 8.99506 1.91843C9.3561 1.61651 9.75501 1.36184 10.1809 1.16137C10.5513 0.986994 10.9431 0.852763 11.3453 0.762331C11.7584 0.669415 12.1848 0.622314 12.6126 0.622314C13.5955 0.622314 14.5661 0.878212 15.4196 1.36234C16.2726 1.84617 16.9678 2.53489 17.4302 3.354C17.841 4.08199 18.0314 4.91168 17.9958 5.82012C17.979 6.2471 17.9111 6.69113 17.7939 7.1399C17.2618 9.17701 15.8007 10.9707 14.4416 12.4565C13.1184 13.9031 11.6124 15.1335 9.96535 16.1134C9.67472 16.2863 9.33979 16.3777 8.99673 16.3777ZM5.37754 0.651533C4.3575 0.651533 3.35983 0.930134 2.49241 1.45721C1.63847 1.97611 0.955279 2.70827 0.516679 3.57455C0.0169153 4.56167 -0.0979245 5.65659 0.175408 6.82887C0.365426 7.64396 0.735747 8.49238 1.34085 9.49888C2.19476 10.9193 3.36741 12.2742 4.82621 13.5258C5.00088 13.6756 5.17697 13.8295 5.36343 13.9925C6.15887 14.6878 7.06035 15.4757 8.02081 16.0726C8.31103 16.2531 8.6485 16.3484 8.9967 16.3484C9.33392 16.3484 9.66315 16.2586 9.9488 16.0886C11.5932 15.1103 13.0969 13.8818 14.4181 12.4373C15.7748 10.9541 17.2333 9.16395 17.7638 7.13286C17.8805 6.68602 17.9482 6.24397 17.9648 5.81898C18.0002 4.91577 17.8111 4.09105 17.4028 3.36771C16.9431 2.55326 16.2518 1.86846 15.4036 1.38735C14.5549 0.905941 13.5898 0.651504 12.6125 0.651504C12.1872 0.651504 11.7632 0.698342 11.3524 0.790731C10.9525 0.880637 10.563 1.01414 10.1947 1.18749C9.76719 1.38872 9.36702 1.64488 9.00533 1.94887L8.99503 1.95752L8.98472 1.94887C8.62307 1.64491 8.22292 1.38875 7.7954 1.18752C7.42712 1.01417 7.03758 0.880696 6.63769 0.79076C6.22681 0.698371 5.80284 0.651533 5.37754 0.651533ZM8.99673 15.1259C8.90225 15.1259 8.81086 15.1001 8.73237 15.0514C7.86123 14.51 7.03842 13.7908 6.24268 13.0953C6.05396 12.9303 5.8757 12.7745 5.69657 12.6208C4.33947 11.4565 3.25269 10.2031 2.46654 8.89531C1.65555 7.54622 0.833726 5.78223 1.68448 4.10189C2.36971 2.7485 3.81935 1.87399 5.37757 1.87399H5.3776C6.65745 1.87399 7.84422 2.42073 8.63368 3.37402C8.7216 3.48017 8.85333 3.54106 8.99509 3.54106C9.13684 3.54106 9.26858 3.4802 9.3565 3.37402C10.146 2.42073 11.3328 1.87399 12.6126 1.87399C14.1193 1.87399 15.5513 2.68603 16.2607 3.94276C16.5599 4.47311 16.6981 5.08916 16.6713 5.77378C16.6579 6.11544 16.6027 6.47416 16.5071 6.84C16.0421 8.62036 14.695 10.2646 13.4386 11.6381C12.2012 12.991 10.7949 14.1403 9.25886 15.0542C9.18006 15.1011 9.08939 15.1259 8.99673 15.1259ZM5.37757 1.90321C3.83119 1.90321 2.39254 2.77121 1.71241 4.11451C0.867819 5.78264 1.68615 7.53798 2.49346 8.88084C3.27803 10.1859 4.36273 11.4369 5.71739 12.5992C5.89661 12.7529 6.07493 12.9088 6.26371 13.0738C7.05853 13.7685 7.88038 14.4869 8.74941 15.027C8.82283 15.0726 8.90834 15.0967 8.99676 15.0967C9.0836 15.0967 9.16856 15.0734 9.2424 15.0295C10.7759 14.1171 12.1798 12.9697 13.4152 11.619C14.6692 10.2481 16.0136 8.60739 16.4771 6.83302C16.5721 6.4691 16.6271 6.11234 16.6404 5.7727C16.667 5.09331 16.53 4.48226 16.2333 3.95652C15.5293 2.70918 14.1081 1.90321 12.6126 1.90321C11.3423 1.90321 10.1644 2.44586 9.38085 3.39205C9.28705 3.50533 9.14644 3.57031 8.99509 3.57031C8.84374 3.57031 8.70313 3.50533 8.6093 3.39205C7.82578 2.44586 6.64783 1.90321 5.37757 1.90321Z" fill="#FFA21F"/>
</g>
<defs>
<clipPath id="clip0">
<rect width="18" height="17" fill="white"/>
</clipPath>
</defs>
</svg>
