<svg width="295" height="215" viewBox="0 0 295 215" fill="none" xmlns="http://www.w3.org/2000/svg">
<path d="M94.3182 120L86 0H147L138.682 120H94.3182Z" fill="#009E4E"/>
<path d="M94 120H139V141.333C139 144.162 137.815 146.875 135.705 148.876C133.595 150.876 130.734 152 127.75 152H105.25C102.266 152 99.4048 150.876 97.295 148.876C95.1853 146.875 94 144.162 94 141.333V120Z" fill="#FFDFC1"/>
<path d="M105.25 152H127.75C130.734 152 133.595 150.841 135.705 148.778C137.815 146.715 139 143.917 139 141H94C94 143.917 95.1853 146.715 97.295 148.778C99.4048 150.841 102.266 152 105.25 152Z" fill="#009E4E"/>
<path d="M113.667 131H119.333C120.836 131 122.278 131.527 123.34 132.464C124.403 133.402 125 134.674 125 136V141H108V136C108 134.674 108.597 133.402 109.66 132.464C110.722 131.527 112.164 131 113.667 131Z" fill="#01C05F"/>
<path d="M208.824 95H136.176C130.004 95 125 99.64 125 105.364V141.636C125 147.36 130.004 152 136.176 152H208.824C214.996 152 220 147.36 220 141.636V105.364C220 99.64 214.996 95 208.824 95Z" fill="#E48501"/>
<path d="M134 83H212V95H134V83Z" fill="#FFA21F"/>
<path d="M125 105H220V141H125V105Z" fill="#FFA21F"/>
<path d="M133.475 83.705C133.475 83.705 130.785 68.3823 158.855 68.3823C186.924 68.3823 191.965 57.4377 191.965 57.4377C191.965 57.4377 211.485 64.0046 211.485 83.705H133.475Z" fill="#FFDFC1"/>
<path d="M172.445 130.986C183.226 130.986 191.965 127.458 191.965 123.106C191.965 118.754 183.226 115.226 172.445 115.226C161.665 115.226 152.926 118.754 152.926 123.106C152.926 127.458 161.665 130.986 172.445 130.986Z" fill="#FFDFC1"/>
<path d="M99.9429 20.6636H133.406V36.4239H99.9429V20.6636Z" fill="#FFDFC1"/>
<path d="M127.828 49.5577H105.52C104.78 49.5577 104.071 49.2809 103.548 48.7883C103.025 48.2957 102.731 47.6276 102.731 46.9309C102.731 46.2343 103.025 45.5662 103.548 45.0735C104.071 44.5809 104.78 44.3042 105.52 44.3042H127.828C128.568 44.3042 129.277 44.5809 129.8 45.0735C130.323 45.5662 130.617 46.2343 130.617 46.9309C130.617 47.6276 130.323 48.2957 129.8 48.7883C129.277 49.2809 128.568 49.5577 127.828 49.5577Z" fill="#FFDFC1"/>
<circle cx="42.5" cy="188.5" r="12.5" fill="#FF4D00"/>
<circle cx="72.5" cy="188.5" r="12.5" fill="#FF4D00"/>
<circle cx="102.5" cy="188.5" r="12.5" fill="#FFA21F"/>
<circle cx="132.5" cy="188.5" r="12.5" fill="#FFA21F"/>
<circle cx="162.5" cy="188.5" r="12.5" fill="#FFA21F"/>
<circle cx="192.5" cy="188.5" r="12.5" fill="#FFA21F"/>
<circle cx="222.5" cy="188.5" r="12.5" fill="#009E4E"/>
<circle cx="252.5" cy="188.5" r="12.5" fill="#009E4E"/>
<circle cx="282.5" cy="188.5" r="12.5" fill="#009E4E"/>
<circle cx="12.5" cy="188.5" r="12.5" fill="#FF4D00"/>
<path d="M9.00914 209.704C9.00914 210.592 8.85714 211.368 8.55314 212.032C8.25714 212.688 7.81714 213.2 7.23314 213.568C6.64914 213.936 5.92514 214.12 5.06114 214.12C4.17314 214.12 3.43314 213.936 2.84114 213.568C2.25714 213.2 1.82114 212.684 1.53314 212.02C1.24514 211.356 1.10114 210.58 1.10114 209.692C1.10114 208.812 1.24514 208.044 1.53314 207.388C1.82114 206.732 2.25714 206.22 2.84114 205.852C3.43314 205.484 4.17714 205.3 5.07314 205.3C5.92914 205.3 6.64914 205.484 7.23314 205.852C7.81714 206.212 8.25714 206.724 8.55314 207.388C8.85714 208.044 9.00914 208.816 9.00914 209.704ZM2.24114 209.704C2.24114 210.784 2.46914 211.636 2.92514 212.26C3.38114 212.876 4.09314 213.184 5.06114 213.184C6.03714 213.184 6.74914 212.876 7.19714 212.26C7.64514 211.636 7.86914 210.784 7.86914 209.704C7.86914 208.624 7.64514 207.78 7.19714 207.172C6.74914 206.556 6.04114 206.248 5.07314 206.248C4.10514 206.248 3.38914 206.556 2.92514 207.172C2.46914 207.78 2.24114 208.624 2.24114 209.704ZM16.2001 207.568V214H15.1441V208.468H11.8201V214H10.7641V207.568H16.2001ZM20.6884 207.46C21.4724 207.46 22.0524 207.632 22.4284 207.976C22.8044 208.32 22.9924 208.868 22.9924 209.62V214H22.2244L22.0204 213.088H21.9724C21.6924 213.44 21.3964 213.7 21.0844 213.868C20.7804 214.036 20.3564 214.12 19.8124 214.12C19.2284 214.12 18.7444 213.968 18.3604 213.664C17.9764 213.352 17.7844 212.868 17.7844 212.212C17.7844 211.572 18.0364 211.08 18.5404 210.736C19.0444 210.384 19.8204 210.192 20.8684 210.16L21.9604 210.124V209.74C21.9604 209.204 21.8444 208.832 21.6124 208.624C21.3804 208.416 21.0524 208.312 20.6284 208.312C20.2924 208.312 19.9724 208.364 19.6684 208.468C19.3644 208.564 19.0804 208.676 18.8164 208.804L18.4924 208.012C18.7724 207.86 19.1044 207.732 19.4884 207.628C19.8724 207.516 20.2724 207.46 20.6884 207.46ZM21.0004 210.892C20.2004 210.924 19.6444 211.052 19.3324 211.276C19.0284 211.5 18.8764 211.816 18.8764 212.224C18.8764 212.584 18.9844 212.848 19.2004 213.016C19.4244 213.184 19.7084 213.268 20.0524 213.268C20.5964 213.268 21.0484 213.12 21.4084 212.824C21.7684 212.52 21.9484 212.056 21.9484 211.432V210.856L21.0004 210.892ZM27.559 214.12C26.991 214.12 26.483 214.004 26.035 213.772C25.595 213.54 25.247 213.18 24.991 212.692C24.743 212.204 24.619 211.58 24.619 210.82C24.619 210.028 24.751 209.384 25.015 208.888C25.279 208.392 25.635 208.028 26.083 207.796C26.539 207.564 27.055 207.448 27.631 207.448C27.959 207.448 28.275 207.484 28.579 207.556C28.883 207.62 29.131 207.7 29.323 207.796L28.999 208.672C28.807 208.6 28.583 208.532 28.327 208.468C28.071 208.404 27.831 208.372 27.607 208.372C26.343 208.372 25.711 209.184 25.711 210.808C25.711 211.584 25.863 212.18 26.167 212.596C26.479 213.004 26.939 213.208 27.547 213.208C27.899 213.208 28.207 213.172 28.471 213.1C28.743 213.028 28.991 212.94 29.215 212.836V213.772C28.999 213.884 28.759 213.968 28.495 214.024C28.239 214.088 27.927 214.12 27.559 214.12ZM31.8006 207.568V210.244H35.2926V207.568H36.3486V214H35.2926V211.132H31.8006V214H30.7446V207.568H31.8006ZM43.9772 210.772C43.9772 211.836 43.7052 212.66 43.1612 213.244C42.6252 213.828 41.8972 214.12 40.9772 214.12C40.4092 214.12 39.9012 213.992 39.4532 213.736C39.0132 213.472 38.6652 213.092 38.4092 212.596C38.1532 212.092 38.0252 211.484 38.0252 210.772C38.0252 209.708 38.2932 208.888 38.8292 208.312C39.3652 207.736 40.0932 207.448 41.0132 207.448C41.5972 207.448 42.1092 207.58 42.5492 207.844C42.9972 208.1 43.3452 208.476 43.5932 208.972C43.8492 209.46 43.9772 210.06 43.9772 210.772ZM39.1172 210.772C39.1172 211.532 39.2652 212.136 39.5612 212.584C39.8652 213.024 40.3452 213.244 41.0012 213.244C41.6492 213.244 42.1252 213.024 42.4292 212.584C42.7332 212.136 42.8852 211.532 42.8852 210.772C42.8852 210.012 42.7332 209.416 42.4292 208.984C42.1252 208.552 41.6452 208.336 40.9892 208.336C40.3332 208.336 39.8572 208.552 39.5612 208.984C39.2652 209.416 39.1172 210.012 39.1172 210.772Z" fill="#FF4D00"/>
<path d="M45.7741 194H39.1661V192.978L41.7841 190.332C42.2881 189.828 42.7128 189.38 43.0581 188.988C43.4035 188.596 43.6648 188.213 43.8421 187.84C44.0195 187.457 44.1081 187.042 44.1081 186.594C44.1081 186.043 43.9448 185.628 43.6181 185.348C43.2915 185.059 42.8668 184.914 42.3441 184.914C41.8588 184.914 41.4295 184.998 41.0561 185.166C40.6921 185.334 40.3188 185.567 39.9361 185.866L39.2781 185.04C39.6701 184.713 40.1181 184.438 40.6221 184.214C41.1355 183.981 41.7095 183.864 42.3441 183.864C43.2775 183.864 44.0148 184.102 44.5561 184.578C45.0975 185.045 45.3681 185.693 45.3681 186.524C45.3681 187.047 45.2608 187.537 45.0461 187.994C44.8315 188.451 44.5328 188.904 44.1501 189.352C43.7675 189.791 43.3195 190.262 42.8061 190.766L40.7201 192.824V192.88H45.7741V194Z" fill="white"/>
<path d="M75.3961 186.342C75.3961 187.014 75.2095 187.551 74.8361 187.952C74.4628 188.344 73.9588 188.605 73.3241 188.736V188.792C74.1268 188.885 74.7241 189.137 75.1161 189.548C75.5081 189.959 75.7041 190.495 75.7041 191.158C75.7041 191.737 75.5688 192.255 75.2981 192.712C75.0275 193.16 74.6075 193.51 74.0381 193.762C73.4781 194.014 72.7548 194.14 71.8681 194.14C71.3455 194.14 70.8601 194.098 70.4121 194.014C69.9641 193.939 69.5348 193.799 69.1241 193.594V192.446C69.5441 192.651 69.9968 192.815 70.4821 192.936C70.9675 193.048 71.4341 193.104 71.8821 193.104C72.7781 193.104 73.4221 192.931 73.8141 192.586C74.2155 192.231 74.4161 191.746 74.4161 191.13C74.4161 190.505 74.1688 190.057 73.6741 189.786C73.1888 189.506 72.5028 189.366 71.6161 189.366H70.6501V188.316H71.6301C72.4515 188.316 73.0721 188.143 73.4921 187.798C73.9215 187.453 74.1361 186.995 74.1361 186.426C74.1361 185.941 73.9728 185.567 73.6461 185.306C73.3195 185.035 72.8761 184.9 72.3161 184.9C71.7748 184.9 71.3128 184.979 70.9301 185.138C70.5475 185.297 70.1695 185.497 69.7961 185.74L69.1801 184.9C69.5348 184.62 69.9735 184.377 70.4961 184.172C71.0281 183.967 71.6301 183.864 72.3021 183.864C73.3475 183.864 74.1221 184.097 74.6261 184.564C75.1395 185.031 75.3961 185.623 75.3961 186.342Z" fill="white"/>
<path d="M106.222 191.732H104.766V194H103.576V191.732H98.7881V190.682L103.492 183.948H104.766V190.626H106.222V191.732ZM103.576 187.476C103.576 186.991 103.585 186.58 103.604 186.244C103.623 185.899 103.637 185.572 103.646 185.264H103.59C103.515 185.441 103.422 185.633 103.31 185.838C103.198 186.043 103.091 186.216 102.988 186.356L99.9921 190.626H103.576V187.476Z" fill="white"/>
<path d="M132.344 187.868C133.371 187.868 134.187 188.125 134.794 188.638C135.401 189.151 135.704 189.875 135.704 190.808C135.704 191.844 135.373 192.661 134.71 193.258C134.057 193.846 133.142 194.14 131.966 194.14C131.453 194.14 130.967 194.093 130.51 194C130.062 193.907 129.684 193.771 129.376 193.594V192.432C129.712 192.637 130.118 192.801 130.594 192.922C131.079 193.034 131.541 193.09 131.98 193.09C132.717 193.09 133.31 192.917 133.758 192.572C134.215 192.217 134.444 191.671 134.444 190.934C134.444 190.281 134.243 189.781 133.842 189.436C133.441 189.081 132.806 188.904 131.938 188.904C131.677 188.904 131.378 188.927 131.042 188.974C130.706 189.021 130.435 189.067 130.23 189.114L129.614 188.722L129.992 184.004H135.004V185.124H131.042L130.804 188.022C130.963 187.994 131.177 187.961 131.448 187.924C131.719 187.887 132.017 187.868 132.344 187.868Z" fill="white"/>
<path d="M159.264 189.73C159.264 189.011 159.325 188.307 159.446 187.616C159.577 186.916 159.805 186.286 160.132 185.726C160.468 185.157 160.935 184.704 161.532 184.368C162.129 184.032 162.899 183.864 163.842 183.864C164.038 183.864 164.253 183.873 164.486 183.892C164.729 183.911 164.925 183.943 165.074 183.99V185.04C164.906 184.984 164.715 184.942 164.5 184.914C164.295 184.886 164.085 184.872 163.87 184.872C163.226 184.872 162.689 184.979 162.26 185.194C161.831 185.409 161.49 185.703 161.238 186.076C160.995 186.449 160.818 186.879 160.706 187.364C160.594 187.849 160.524 188.367 160.496 188.918H160.58C160.795 188.591 161.093 188.316 161.476 188.092C161.859 187.859 162.349 187.742 162.946 187.742C163.814 187.742 164.514 188.008 165.046 188.54C165.578 189.063 165.844 189.809 165.844 190.78C165.844 191.825 165.555 192.647 164.976 193.244C164.407 193.841 163.637 194.14 162.666 194.14C162.031 194.14 161.457 193.981 160.944 193.664C160.431 193.347 160.02 192.861 159.712 192.208C159.413 191.555 159.264 190.729 159.264 189.73ZM162.652 193.104C163.24 193.104 163.716 192.917 164.08 192.544C164.444 192.161 164.626 191.573 164.626 190.78C164.626 190.145 164.463 189.641 164.136 189.268C163.819 188.895 163.338 188.708 162.694 188.708C162.255 188.708 161.873 188.801 161.546 188.988C161.219 189.165 160.963 189.394 160.776 189.674C160.599 189.954 160.51 190.243 160.51 190.542C160.51 190.943 160.589 191.345 160.748 191.746C160.907 192.138 161.145 192.465 161.462 192.726C161.779 192.978 162.176 193.104 162.652 193.104Z" fill="white"/>
<path d="M190.398 194L194.5 185.124H189.11V184.004H195.816V184.956L191.756 194H190.398Z" fill="white"/>
<path d="M222.484 183.864C223.361 183.864 224.08 184.069 224.64 184.48C225.2 184.891 225.48 185.483 225.48 186.258C225.48 186.659 225.391 187.009 225.214 187.308C225.046 187.607 224.817 187.873 224.528 188.106C224.239 188.33 223.921 188.531 223.576 188.708C223.987 188.904 224.36 189.128 224.696 189.38C225.032 189.623 225.298 189.907 225.494 190.234C225.699 190.561 225.802 190.953 225.802 191.41C225.802 192.25 225.503 192.917 224.906 193.412C224.318 193.897 223.525 194.14 222.526 194.14C221.453 194.14 220.627 193.907 220.048 193.44C219.469 192.964 219.18 192.301 219.18 191.452C219.18 190.995 219.273 190.598 219.46 190.262C219.656 189.926 219.913 189.637 220.23 189.394C220.547 189.151 220.888 188.946 221.252 188.778C220.767 188.498 220.351 188.162 220.006 187.77C219.67 187.369 219.502 186.86 219.502 186.244C219.502 185.731 219.633 185.301 219.894 184.956C220.155 184.601 220.51 184.331 220.958 184.144C221.406 183.957 221.915 183.864 222.484 183.864ZM222.47 184.858C221.957 184.858 221.532 184.984 221.196 185.236C220.869 185.479 220.706 185.833 220.706 186.3C220.706 186.645 220.785 186.935 220.944 187.168C221.112 187.401 221.336 187.602 221.616 187.77C221.896 187.929 222.204 188.083 222.54 188.232C223.025 188.027 223.431 187.779 223.758 187.49C224.094 187.201 224.262 186.804 224.262 186.3C224.262 185.833 224.099 185.479 223.772 185.236C223.445 184.984 223.011 184.858 222.47 184.858ZM220.384 191.466C220.384 191.951 220.557 192.357 220.902 192.684C221.247 193.001 221.779 193.16 222.498 193.16C223.179 193.16 223.697 193.001 224.052 192.684C224.416 192.357 224.598 191.937 224.598 191.424C224.598 190.939 224.407 190.537 224.024 190.22C223.641 189.893 223.133 189.609 222.498 189.366L222.274 189.282C221.658 189.543 221.187 189.847 220.86 190.192C220.543 190.528 220.384 190.953 220.384 191.466Z" fill="white"/>
<path d="M255.774 188.274C255.774 188.993 255.709 189.702 255.578 190.402C255.457 191.093 255.228 191.723 254.892 192.292C254.565 192.852 254.099 193.3 253.492 193.636C252.895 193.972 252.125 194.14 251.182 194.14C250.995 194.14 250.776 194.126 250.524 194.098C250.281 194.079 250.081 194.047 249.922 194V192.95C250.286 193.071 250.697 193.132 251.154 193.132C251.807 193.132 252.344 193.025 252.764 192.81C253.193 192.595 253.534 192.306 253.786 191.942C254.038 191.569 254.22 191.139 254.332 190.654C254.444 190.159 254.509 189.641 254.528 189.1H254.444C254.239 189.417 253.94 189.693 253.548 189.926C253.165 190.15 252.671 190.262 252.064 190.262C251.205 190.262 250.51 190.001 249.978 189.478C249.455 188.946 249.194 188.199 249.194 187.238C249.194 186.538 249.325 185.936 249.586 185.432C249.857 184.928 250.23 184.541 250.706 184.27C251.182 183.999 251.742 183.864 252.386 183.864C253.021 183.864 253.595 184.027 254.108 184.354C254.621 184.671 255.027 185.157 255.326 185.81C255.625 186.454 255.774 187.275 255.774 188.274ZM252.386 184.9C251.807 184.9 251.331 185.091 250.958 185.474C250.594 185.857 250.412 186.44 250.412 187.224C250.412 187.868 250.566 188.377 250.874 188.75C251.191 189.114 251.677 189.296 252.33 189.296C252.778 189.296 253.165 189.207 253.492 189.03C253.819 188.843 254.071 188.61 254.248 188.33C254.435 188.05 254.528 187.761 254.528 187.462C254.528 187.061 254.449 186.664 254.29 186.272C254.131 185.88 253.893 185.553 253.576 185.292C253.259 185.031 252.862 184.9 252.386 184.9Z" fill="white"/>
<path d="M279.458 194H278.254V187.014C278.254 186.613 278.259 186.291 278.268 186.048C278.278 185.805 278.292 185.553 278.31 185.292C278.161 185.441 278.026 185.567 277.904 185.67C277.783 185.773 277.629 185.903 277.442 186.062L276.378 186.93L275.734 186.104L278.436 184.004H279.458V194ZM289.822 188.988C289.822 190.061 289.71 190.985 289.486 191.76C289.262 192.525 288.907 193.113 288.422 193.524C287.937 193.935 287.293 194.14 286.49 194.14C285.361 194.14 284.525 193.687 283.984 192.782C283.452 191.867 283.186 190.603 283.186 188.988C283.186 187.905 283.293 186.981 283.508 186.216C283.732 185.451 284.087 184.867 284.572 184.466C285.057 184.055 285.697 183.85 286.49 183.85C287.61 183.85 288.445 184.303 288.996 185.208C289.547 186.104 289.822 187.364 289.822 188.988ZM284.418 188.988C284.418 190.36 284.572 191.387 284.88 192.068C285.197 192.749 285.734 193.09 286.49 193.09C287.237 193.09 287.769 192.754 288.086 192.082C288.413 191.401 288.576 190.369 288.576 188.988C288.576 187.625 288.413 186.603 288.086 185.922C287.769 185.241 287.237 184.9 286.49 184.9C285.734 184.9 285.197 185.241 284.88 185.922C284.572 186.603 284.418 187.625 284.418 188.988Z" fill="white"/>
<path d="M233.568 214V205.432H238.656V206.38H234.648V209.056H235.92C236.776 209.056 237.44 209.164 237.912 209.38C238.384 209.588 238.712 209.876 238.896 210.244C239.08 210.604 239.172 211.02 239.172 211.492C239.172 212.276 238.936 212.892 238.464 213.34C237.992 213.78 237.196 214 236.076 214H233.568ZM235.968 213.076C236.736 213.076 237.276 212.948 237.588 212.692C237.9 212.428 238.056 212.028 238.056 211.492C238.056 210.94 237.884 210.552 237.54 210.328C237.196 210.104 236.612 209.992 235.788 209.992H234.648V213.076H235.968ZM243.291 207.448C243.843 207.448 244.315 207.568 244.707 207.808C245.107 208.048 245.411 208.388 245.619 208.828C245.835 209.26 245.943 209.768 245.943 210.352V210.988H241.539C241.555 211.716 241.739 212.272 242.091 212.656C242.451 213.032 242.951 213.22 243.591 213.22C243.999 213.22 244.359 213.184 244.671 213.112C244.991 213.032 245.319 212.92 245.655 212.776V213.7C245.327 213.844 245.003 213.948 244.683 214.012C244.363 214.084 243.983 214.12 243.543 214.12C242.935 214.12 242.395 213.996 241.923 213.748C241.459 213.5 241.095 213.132 240.831 212.644C240.575 212.148 240.447 211.544 240.447 210.832C240.447 210.128 240.563 209.524 240.795 209.02C241.035 208.516 241.367 208.128 241.791 207.856C242.223 207.584 242.723 207.448 243.291 207.448ZM243.279 208.312C242.775 208.312 242.375 208.476 242.079 208.804C241.791 209.124 241.619 209.572 241.563 210.148H244.839C244.831 209.604 244.703 209.164 244.455 208.828C244.207 208.484 243.815 208.312 243.279 208.312ZM249.273 207.448C250.009 207.448 250.593 207.596 251.025 207.892C251.465 208.18 251.685 208.596 251.685 209.14C251.685 209.532 251.577 209.844 251.361 210.076C251.145 210.3 250.849 210.464 250.473 210.568V210.616C250.729 210.688 250.965 210.788 251.181 210.916C251.397 211.044 251.569 211.212 251.697 211.42C251.833 211.628 251.901 211.896 251.901 212.224C251.901 212.76 251.677 213.212 251.229 213.58C250.789 213.94 250.097 214.12 249.153 214.12C248.689 214.12 248.269 214.08 247.893 214C247.517 213.928 247.205 213.828 246.957 213.7V212.752C247.229 212.88 247.549 212.996 247.917 213.1C248.293 213.204 248.701 213.256 249.141 213.256C249.621 213.256 250.025 213.176 250.353 213.016C250.689 212.848 250.857 212.564 250.857 212.164C250.857 211.444 250.245 211.084 249.021 211.084H248.157V210.22H248.853C249.405 210.22 249.845 210.148 250.173 210.004C250.509 209.852 250.677 209.596 250.677 209.236C250.677 208.932 250.549 208.704 250.293 208.552C250.045 208.4 249.685 208.324 249.213 208.324C248.861 208.324 248.549 208.36 248.277 208.432C248.013 208.496 247.721 208.596 247.401 208.732L247.029 207.892C247.701 207.596 248.449 207.448 249.273 207.448ZM259.055 210.772C259.055 211.836 258.783 212.66 258.239 213.244C257.703 213.828 256.975 214.12 256.055 214.12C255.487 214.12 254.979 213.992 254.531 213.736C254.091 213.472 253.743 213.092 253.487 212.596C253.231 212.092 253.103 211.484 253.103 210.772C253.103 209.708 253.371 208.888 253.907 208.312C254.443 207.736 255.171 207.448 256.091 207.448C256.675 207.448 257.187 207.58 257.627 207.844C258.075 208.1 258.423 208.476 258.671 208.972C258.927 209.46 259.055 210.06 259.055 210.772ZM254.195 210.772C254.195 211.532 254.343 212.136 254.639 212.584C254.943 213.024 255.423 213.244 256.079 213.244C256.727 213.244 257.203 213.024 257.507 212.584C257.811 212.136 257.963 211.532 257.963 210.772C257.963 210.012 257.811 209.416 257.507 208.984C257.203 208.552 256.723 208.336 256.067 208.336C255.411 208.336 254.935 208.552 254.639 208.984C254.343 209.416 254.195 210.012 254.195 210.772ZM266.165 207.568V214H265.109V208.468H261.785V214H260.729V207.568H266.165ZM270.653 207.46C271.437 207.46 272.017 207.632 272.393 207.976C272.769 208.32 272.957 208.868 272.957 209.62V214H272.189L271.985 213.088H271.937C271.657 213.44 271.361 213.7 271.049 213.868C270.745 214.036 270.321 214.12 269.777 214.12C269.193 214.12 268.709 213.968 268.325 213.664C267.941 213.352 267.749 212.868 267.749 212.212C267.749 211.572 268.001 211.08 268.505 210.736C269.009 210.384 269.785 210.192 270.833 210.16L271.925 210.124V209.74C271.925 209.204 271.809 208.832 271.577 208.624C271.345 208.416 271.017 208.312 270.593 208.312C270.257 208.312 269.937 208.364 269.633 208.468C269.329 208.564 269.045 208.676 268.781 208.804L268.457 208.012C268.737 207.86 269.069 207.732 269.453 207.628C269.837 207.516 270.237 207.46 270.653 207.46ZM270.965 210.892C270.165 210.924 269.609 211.052 269.297 211.276C268.993 211.5 268.841 211.816 268.841 212.224C268.841 212.584 268.949 212.848 269.165 213.016C269.389 213.184 269.673 213.268 270.017 213.268C270.561 213.268 271.013 213.12 271.373 212.824C271.733 212.52 271.913 212.056 271.913 211.432V210.856L270.965 210.892ZM277.524 214.12C276.956 214.12 276.448 214.004 276 213.772C275.56 213.54 275.212 213.18 274.956 212.692C274.708 212.204 274.584 211.58 274.584 210.82C274.584 210.028 274.716 209.384 274.98 208.888C275.244 208.392 275.6 208.028 276.048 207.796C276.504 207.564 277.02 207.448 277.596 207.448C277.924 207.448 278.24 207.484 278.544 207.556C278.848 207.62 279.096 207.7 279.288 207.796L278.964 208.672C278.772 208.6 278.548 208.532 278.292 208.468C278.036 208.404 277.796 208.372 277.572 208.372C276.308 208.372 275.676 209.184 275.676 210.808C275.676 211.584 275.828 212.18 276.132 212.596C276.444 213.004 276.904 213.208 277.512 213.208C277.864 213.208 278.172 213.172 278.436 213.1C278.708 213.028 278.956 212.94 279.18 212.836V213.772C278.964 213.884 278.724 213.968 278.46 214.024C278.204 214.088 277.892 214.12 277.524 214.12ZM281.765 207.568V210.244H285.257V207.568H286.313V214H285.257V211.132H281.765V214H280.709V207.568H281.765ZM293.942 210.772C293.942 211.836 293.67 212.66 293.126 213.244C292.59 213.828 291.862 214.12 290.942 214.12C290.374 214.12 289.866 213.992 289.418 213.736C288.978 213.472 288.63 213.092 288.374 212.596C288.118 212.092 287.99 211.484 287.99 210.772C287.99 209.708 288.258 208.888 288.794 208.312C289.33 207.736 290.058 207.448 290.978 207.448C291.562 207.448 292.074 207.58 292.514 207.844C292.962 208.1 293.31 208.476 293.558 208.972C293.814 209.46 293.942 210.06 293.942 210.772ZM289.082 210.772C289.082 211.532 289.23 212.136 289.526 212.584C289.83 213.024 290.31 213.244 290.966 213.244C291.614 213.244 292.09 213.024 292.394 212.584C292.698 212.136 292.85 211.532 292.85 210.772C292.85 210.012 292.698 209.416 292.394 208.984C292.09 208.552 291.61 208.336 290.954 208.336C290.298 208.336 289.822 208.552 289.526 208.984C289.23 209.416 289.082 210.012 289.082 210.772Z" fill="#009E4E"/>
<path d="M13.4641 194H12.2601V187.014C12.2601 186.613 12.2648 186.291 12.2741 186.048C12.2835 185.805 12.2975 185.553 12.3161 185.292C12.1668 185.441 12.0315 185.567 11.9101 185.67C11.7888 185.773 11.6348 185.903 11.4481 186.062L10.3841 186.93L9.74014 186.104L12.4421 184.004H13.4641V194Z" fill="white"/>
</svg>
