<svg fill="#000000" xmlns="http://www.w3.org/2000/svg"  viewBox="0 0 50 50" width="50px" height="50px"><path d="M47,29c0-0.979-0.354-1.877-0.939-2.572C47.222,25.727,48,24.453,48,23c0-2.206-1.794-4-4-4H29.377C29.986,17.07,31,13.616,31,12c0-3.764-2.752-9-5.462-9H23c-0.552,0-1,0.448-1,1v7.764l-5,10V20c0-0.552-0.448-1-1-1H3c-0.287,0-0.56,0.123-0.75,0.338c-0.19,0.215-0.278,0.501-0.243,0.786l3,24C5.07,44.624,5.496,45,6,45h10c0.552,0,1-0.447,1-1v-1h1.171c0.413,1.164,1.525,2,2.829,2h19c2.206,0,4-1.794,4-4c0-0.823-0.25-1.588-0.677-2.225C44.88,38.228,46,36.742,46,35c0-0.979-0.354-1.877-0.939-2.572C46.222,31.727,47,30.452,47,29z M15,43H6.883l-2.75-22H15v2v19V43z M44,25h-1c-0.553,0-1,0.447-1,1s0.447,1,1,1c1.103,0,2,0.897,2,2s-0.897,2-2,2h-1c-0.553,0-1,0.447-1,1s0.447,1,1,1c1.103,0,2,0.897,2,2s-0.897,2-2,2h-2c-0.553,0-1,0.447-1,1s0.447,1,1,1c1.103,0,2,0.897,2,2s-0.897,2-2,2H21c-0.551,0-1-0.448-1-1c0-0.553-0.448-1-1-1h-2V24h0.5c0.379,0,0.725-0.214,0.895-0.553l5.5-11C23.964,12.309,24,12.155,24,12V5h1.538C26.455,5,29,8.481,29,12c0,1.568-1.406,6.076-1.947,7.68c-0.104,0.305-0.053,0.641,0.135,0.903C27.376,20.845,27.678,21,28,21h16c1.103,0,2,0.897,2,2S45.103,25,44,25z"/><path d="M11.5 38A1.5 1.5 0 1 0 11.5 41A1.5 1.5 0 1 0 11.5 38Z"/></svg>