<svg width="249" height="35" viewBox="0 0 249 35" fill="none" xmlns="http://www.w3.org/2000/svg">
<path d="M60.2541 33H44.2941V4.44H60.2541V7.6H47.8941V16.52H59.5341V19.64H47.8941V29.84H60.2541V33ZM74.6406 33.4C72.7473 33.4 71.054 33.0133 69.5606 32.24C68.094 31.4667 66.934 30.2667 66.0806 28.64C65.254 27.0133 64.8406 24.9333 64.8406 22.4C64.8406 19.76 65.2806 17.6133 66.1606 15.96C67.0406 14.3067 68.2273 13.0933 69.7206 12.32C71.2406 11.5467 72.9606 11.16 74.8806 11.16C75.974 11.16 77.0273 11.28 78.0406 11.52C79.054 11.7333 79.8806 12 80.5206 12.32L79.4406 15.24C78.8006 15 78.054 14.7733 77.2006 14.56C76.3473 14.3467 75.5473 14.24 74.8006 14.24C70.5873 14.24 68.4806 16.9467 68.4806 22.36C68.4806 24.9467 68.9873 26.9333 70.0006 28.32C71.0406 29.68 72.574 30.36 74.6006 30.36C75.774 30.36 76.8006 30.24 77.6806 30C78.5873 29.76 79.414 29.4667 80.1606 29.12V32.24C79.4406 32.6133 78.6406 32.8933 77.7606 33.08C76.9073 33.2933 75.8673 33.4 74.6406 33.4ZM103.899 22.24C103.899 25.7867 102.993 28.5333 101.179 30.48C99.3927 32.4267 96.966 33.4 93.8994 33.4C92.006 33.4 90.3127 32.9733 88.8194 32.12C87.3527 31.24 86.1927 29.9733 85.3394 28.32C84.486 26.64 84.0594 24.6133 84.0594 22.24C84.0594 18.6933 84.9527 15.96 86.7394 14.04C88.526 12.12 90.9527 11.16 94.0194 11.16C95.966 11.16 97.6727 11.6 99.1394 12.48C100.633 13.3333 101.793 14.5867 102.619 16.24C103.473 17.8667 103.899 19.8667 103.899 22.24ZM87.6994 22.24C87.6994 24.7733 88.1927 26.7867 89.1794 28.28C90.1927 29.7467 91.7927 30.48 93.9794 30.48C96.1394 30.48 97.726 29.7467 98.7394 28.28C99.7527 26.7867 100.259 24.7733 100.259 22.24C100.259 19.7067 99.7527 17.72 98.7394 16.28C97.726 14.84 96.126 14.12 93.9394 14.12C91.7527 14.12 90.166 14.84 89.1794 16.28C88.1927 17.72 87.6994 19.7067 87.6994 22.24Z" fill="#009E4E"/>
<path d="M123.438 27.08C123.438 29.16 122.665 30.7333 121.118 31.8C119.571 32.8667 117.491 33.4 114.878 33.4C113.385 33.4 112.091 33.28 110.998 33.04C109.931 32.8 108.985 32.4667 108.158 32.04V28.84C109.011 29.2667 110.038 29.6667 111.238 30.04C112.465 30.3867 113.705 30.56 114.958 30.56C116.745 30.56 118.038 30.28 118.838 29.72C119.638 29.1333 120.038 28.36 120.038 27.4C120.038 26.8667 119.891 26.3867 119.598 25.96C119.305 25.5333 118.771 25.1067 117.998 24.68C117.251 24.2533 116.171 23.7733 114.758 23.24C113.371 22.7067 112.185 22.1733 111.198 21.64C110.211 21.1067 109.451 20.4667 108.918 19.72C108.385 18.9733 108.118 18.0133 108.118 16.84C108.118 15.0267 108.851 13.6267 110.318 12.64C111.811 11.6533 113.758 11.16 116.158 11.16C117.465 11.16 118.678 11.2933 119.798 11.56C120.945 11.8 122.011 12.1467 122.998 12.6L121.798 15.4C120.891 15.0267 119.945 14.7067 118.958 14.44C117.971 14.1733 116.958 14.04 115.918 14.04C114.478 14.04 113.371 14.28 112.598 14.76C111.851 15.2133 111.478 15.84 111.478 16.64C111.478 17.2267 111.651 17.7333 111.998 18.16C112.345 18.56 112.918 18.96 113.718 19.36C114.545 19.7333 115.638 20.1867 116.998 20.72C118.358 21.2267 119.518 21.7467 120.478 22.28C121.438 22.8133 122.171 23.4667 122.678 24.24C123.185 24.9867 123.438 25.9333 123.438 27.08ZM152.139 11.16C154.565 11.16 156.379 11.7867 157.579 13.04C158.779 14.2667 159.379 16.2667 159.379 19.04V33H155.899V19.2C155.899 15.8133 154.445 14.12 151.539 14.12C149.459 14.12 147.965 14.72 147.059 15.92C146.179 17.12 145.739 18.8667 145.739 21.16V33H142.259V19.2C142.259 15.8133 140.792 14.12 137.859 14.12C135.699 14.12 134.205 14.7867 133.379 16.12C132.552 17.4533 132.139 19.3733 132.139 21.88V33H128.619V11.56H131.459L131.979 14.48H132.179C132.845 13.36 133.739 12.5333 134.859 12C136.005 11.44 137.219 11.16 138.499 11.16C141.859 11.16 144.045 12.36 145.059 14.76H145.259C145.979 13.5333 146.952 12.6267 148.179 12.04C149.432 11.4533 150.752 11.16 152.139 11.16ZM174.282 11.16C176.122 11.16 177.695 11.56 179.002 12.36C180.335 13.16 181.348 14.2933 182.042 15.76C182.762 17.2 183.122 18.8933 183.122 20.84V22.96H168.442C168.495 25.3867 169.108 27.24 170.282 28.52C171.482 29.7733 173.148 30.4 175.282 30.4C176.642 30.4 177.842 30.28 178.882 30.04C179.948 29.7733 181.042 29.4 182.162 28.92V32C181.068 32.48 179.988 32.8267 178.922 33.04C177.855 33.28 176.588 33.4 175.122 33.4C173.095 33.4 171.295 32.9867 169.722 32.16C168.175 31.3333 166.962 30.1067 166.082 28.48C165.228 26.8267 164.802 24.8133 164.802 22.44C164.802 20.0933 165.188 18.08 165.962 16.4C166.762 14.72 167.868 13.4267 169.282 12.52C170.722 11.6133 172.388 11.16 174.282 11.16ZM174.242 14.04C172.562 14.04 171.228 14.5867 170.242 15.68C169.282 16.7467 168.708 18.24 168.522 20.16H179.442C179.415 18.3467 178.988 16.88 178.162 15.76C177.335 14.6133 176.028 14.04 174.242 14.04ZM195.74 30.52C196.273 30.52 196.82 30.48 197.38 30.4C197.94 30.2933 198.393 30.1867 198.74 30.08V32.76C198.366 32.9467 197.833 33.0933 197.14 33.2C196.446 33.3333 195.78 33.4 195.14 33.4C194.02 33.4 192.98 33.2133 192.02 32.84C191.086 32.44 190.326 31.76 189.74 30.8C189.153 29.84 188.86 28.4933 188.86 26.76V14.28H185.82V12.6L188.9 11.2L190.3 6.64H192.38V11.56H198.58V14.28H192.38V26.68C192.38 27.9867 192.686 28.96 193.3 29.6C193.94 30.2133 194.753 30.52 195.74 30.52ZM204.833 3.52C205.366 3.52 205.833 3.70666 206.233 4.08C206.659 4.42666 206.873 4.98666 206.873 5.76C206.873 6.50666 206.659 7.06666 206.233 7.44C205.833 7.81333 205.366 8 204.833 8C204.246 8 203.753 7.81333 203.353 7.44C202.953 7.06666 202.753 6.50666 202.753 5.76C202.753 4.98666 202.953 4.42666 203.353 4.08C203.753 3.70666 204.246 3.52 204.833 3.52ZM206.553 11.56V33H203.033V11.56H206.553ZM221.945 33.4C220.052 33.4 218.359 33.0133 216.865 32.24C215.399 31.4667 214.239 30.2667 213.385 28.64C212.559 27.0133 212.145 24.9333 212.145 22.4C212.145 19.76 212.585 17.6133 213.465 15.96C214.345 14.3067 215.532 13.0933 217.025 12.32C218.545 11.5467 220.265 11.16 222.185 11.16C223.279 11.16 224.332 11.28 225.345 11.52C226.359 11.7333 227.185 12 227.825 12.32L226.745 15.24C226.105 15 225.359 14.7733 224.505 14.56C223.652 14.3467 222.852 14.24 222.105 14.24C217.892 14.24 215.785 16.9467 215.785 22.36C215.785 24.9467 216.292 26.9333 217.305 28.32C218.345 29.68 219.879 30.36 221.905 30.36C223.079 30.36 224.105 30.24 224.985 30C225.892 29.76 226.719 29.4667 227.465 29.12V32.24C226.745 32.6133 225.945 32.8933 225.065 33.08C224.212 33.2933 223.172 33.4 221.945 33.4ZM240.684 11.2C243.297 11.2 245.231 11.7733 246.484 12.92C247.737 14.0667 248.364 15.8933 248.364 18.4V33H245.804L245.124 29.96H244.964C244.031 31.1333 243.044 32 242.004 32.56C240.991 33.12 239.577 33.4 237.764 33.4C235.817 33.4 234.204 32.8933 232.924 31.88C231.644 30.84 231.004 29.2267 231.004 27.04C231.004 24.9067 231.844 23.2667 233.524 22.12C235.204 20.9467 237.791 20.3067 241.284 20.2L244.924 20.08V18.8C244.924 17.0133 244.537 15.7733 243.764 15.08C242.991 14.3867 241.897 14.04 240.484 14.04C239.364 14.04 238.297 14.2133 237.284 14.56C236.271 14.88 235.324 15.2533 234.444 15.68L233.364 13.04C234.297 12.5333 235.404 12.1067 236.684 11.76C237.964 11.3867 239.297 11.2 240.684 11.2ZM241.724 22.64C239.057 22.7467 237.204 23.1733 236.164 23.92C235.151 24.6667 234.644 25.72 234.644 27.08C234.644 28.28 235.004 29.16 235.724 29.72C236.471 30.28 237.417 30.56 238.564 30.56C240.377 30.56 241.884 30.0667 243.084 29.08C244.284 28.0667 244.884 26.52 244.884 24.44V22.52L241.724 22.64Z" fill="black"/>
<g clip-path="url(#clip0)">
<path d="M7.77284 35L3.79897 26.7827C0.812073 20.6063 2.5618 13.3659 7.61629 9.17472C10.7627 6.56571 13.7645 3.78718 16.5194 0.767607L17.2196 0L18.848 2.15147C20.8573 4.80614 22.3905 7.62897 23.2964 10.4893L7.77284 35Z" fill="#00A083"/>
<path d="M32.0446 10.2497L31.5152 7.60388C28.8992 13.7704 22.1893 17.047 18.3432 21.3019C11.6171 28.743 7.77295 35 7.77295 35H11.7553C29.4554 35 34.606 23.0536 32.0446 10.2497Z" fill="#009E4E"/>
<path d="M31.515 7.60388L30.5503 7.99004C28.1734 8.94154 25.7503 9.76568 23.2962 10.4893V10.4893C21.8325 10.921 20.3578 11.3168 18.8752 11.6825C12.5001 13.2551 7.77271 19.0116 7.77271 25.8722V35C7.77277 35 24.324 24.5543 31.515 7.60388Z" fill="#BBE887"/>
</g>
<defs>
<clipPath id="clip0">
<rect width="35" height="35" fill="white"/>
</clipPath>
</defs>
</svg>
