<svg width="205" height="108" viewBox="0 0 205 108" fill="none" xmlns="http://www.w3.org/2000/svg">
<g clip-path="url(#clip0)">
<path d="M89.1041 50L83.4271 38.2609C79.1601 29.4376 81.6597 19.0941 88.8804 13.1067C93.3752 9.37959 97.6636 5.41025 101.599 1.09658L102.599 0L104.926 3.07354C107.796 6.86592 109.986 10.8985 111.281 14.9847L89.1041 50Z" fill="#00A083"/>
<path d="M123.778 14.6424L123.022 10.8627C119.284 19.6719 109.699 24.3528 104.204 30.4313C94.5957 41.0614 89.104 50 89.104 50H94.7931C120.079 50 127.437 32.9337 123.778 14.6424Z" fill="#009E4E"/>
<path d="M123.021 10.8627L121.643 11.4143C118.247 12.7736 114.786 13.951 111.28 14.9846V14.9847C109.189 15.6013 107.082 16.1668 104.964 16.6892C95.8569 18.9358 89.1035 27.1593 89.1035 36.9602V50C89.1036 50 112.748 35.0775 123.021 10.8627Z" fill="#BBE887"/>
</g>
<path d="M16.2541 107H0.294063V78.44H16.2541V81.6H3.89406V90.52H15.5341V93.64H3.89406V103.84H16.2541V107ZM30.6406 107.4C28.7473 107.4 27.054 107.013 25.5606 106.24C24.094 105.467 22.934 104.267 22.0806 102.64C21.254 101.013 20.8406 98.9333 20.8406 96.4C20.8406 93.76 21.2806 91.6133 22.1606 89.96C23.0406 88.3067 24.2273 87.0933 25.7206 86.32C27.2406 85.5467 28.9606 85.16 30.8806 85.16C31.974 85.16 33.0273 85.28 34.0406 85.52C35.054 85.7333 35.8806 86 36.5206 86.32L35.4406 89.24C34.8006 89 34.054 88.7733 33.2006 88.56C32.3473 88.3467 31.5473 88.24 30.8006 88.24C26.5873 88.24 24.4806 90.9467 24.4806 96.36C24.4806 98.9467 24.9873 100.933 26.0006 102.32C27.0406 103.68 28.574 104.36 30.6006 104.36C31.774 104.36 32.8006 104.24 33.6806 104C34.5873 103.76 35.414 103.467 36.1606 103.12V106.24C35.4406 106.613 34.6406 106.893 33.7606 107.08C32.9073 107.293 31.8673 107.4 30.6406 107.4ZM59.8994 96.24C59.8994 99.7867 58.9927 102.533 57.1794 104.48C55.3927 106.427 52.966 107.4 49.8994 107.4C48.006 107.4 46.3127 106.973 44.8194 106.12C43.3527 105.24 42.1927 103.973 41.3394 102.32C40.486 100.64 40.0594 98.6133 40.0594 96.24C40.0594 92.6933 40.9527 89.96 42.7394 88.04C44.526 86.12 46.9527 85.16 50.0194 85.16C51.966 85.16 53.6727 85.6 55.1394 86.48C56.6327 87.3333 57.7927 88.5867 58.6194 90.24C59.4727 91.8667 59.8994 93.8667 59.8994 96.24ZM43.6994 96.24C43.6994 98.7733 44.1927 100.787 45.1794 102.28C46.1927 103.747 47.7927 104.48 49.9794 104.48C52.1394 104.48 53.726 103.747 54.7394 102.28C55.7527 100.787 56.2594 98.7733 56.2594 96.24C56.2594 93.7067 55.7527 91.72 54.7394 90.28C53.726 88.84 52.126 88.12 49.9394 88.12C47.7527 88.12 46.166 88.84 45.1794 90.28C44.1927 91.72 43.6994 93.7067 43.6994 96.24Z" fill="#009E4E"/>
<path d="M79.4381 101.08C79.4381 103.16 78.6648 104.733 77.1181 105.8C75.5715 106.867 73.4915 107.4 70.8781 107.4C69.3848 107.4 68.0915 107.28 66.9981 107.04C65.9315 106.8 64.9848 106.467 64.1581 106.04V102.84C65.0115 103.267 66.0381 103.667 67.2381 104.04C68.4648 104.387 69.7048 104.56 70.9581 104.56C72.7448 104.56 74.0381 104.28 74.8381 103.72C75.6381 103.133 76.0381 102.36 76.0381 101.4C76.0381 100.867 75.8915 100.387 75.5981 99.96C75.3048 99.5333 74.7715 99.1067 73.9981 98.68C73.2515 98.2533 72.1715 97.7733 70.7581 97.24C69.3715 96.7067 68.1848 96.1733 67.1981 95.64C66.2115 95.1067 65.4515 94.4667 64.9181 93.72C64.3848 92.9733 64.1181 92.0133 64.1181 90.84C64.1181 89.0267 64.8515 87.6267 66.3181 86.64C67.8115 85.6533 69.7581 85.16 72.1581 85.16C73.4648 85.16 74.6781 85.2933 75.7981 85.56C76.9448 85.8 78.0115 86.1467 78.9981 86.6L77.7981 89.4C76.8915 89.0267 75.9448 88.7067 74.9581 88.44C73.9715 88.1733 72.9581 88.04 71.9181 88.04C70.4781 88.04 69.3715 88.28 68.5981 88.76C67.8515 89.2133 67.4781 89.84 67.4781 90.64C67.4781 91.2267 67.6515 91.7333 67.9981 92.16C68.3448 92.56 68.9181 92.96 69.7181 93.36C70.5448 93.7333 71.6381 94.1867 72.9981 94.72C74.3581 95.2267 75.5181 95.7467 76.4781 96.28C77.4381 96.8133 78.1715 97.4667 78.6781 98.24C79.1848 98.9867 79.4381 99.9333 79.4381 101.08ZM108.139 85.16C110.565 85.16 112.379 85.7867 113.579 87.04C114.779 88.2667 115.379 90.2667 115.379 93.04V107H111.899V93.2C111.899 89.8133 110.445 88.12 107.539 88.12C105.459 88.12 103.965 88.72 103.059 89.92C102.179 91.12 101.739 92.8667 101.739 95.16V107H98.2588V93.2C98.2588 89.8133 96.7921 88.12 93.8588 88.12C91.6988 88.12 90.2054 88.7867 89.3788 90.12C88.5521 91.4533 88.1388 93.3733 88.1388 95.88V107H84.6188V85.56H87.4588L87.9788 88.48H88.1788C88.8454 87.36 89.7388 86.5333 90.8588 86C92.0054 85.44 93.2188 85.16 94.4988 85.16C97.8588 85.16 100.045 86.36 101.059 88.76H101.259C101.979 87.5333 102.952 86.6267 104.179 86.04C105.432 85.4533 106.752 85.16 108.139 85.16ZM130.282 85.16C132.122 85.16 133.695 85.56 135.002 86.36C136.335 87.16 137.348 88.2933 138.042 89.76C138.762 91.2 139.122 92.8933 139.122 94.84V96.96H124.442C124.495 99.3867 125.108 101.24 126.282 102.52C127.482 103.773 129.148 104.4 131.282 104.4C132.642 104.4 133.842 104.28 134.882 104.04C135.948 103.773 137.042 103.4 138.162 102.92V106C137.068 106.48 135.988 106.827 134.922 107.04C133.855 107.28 132.588 107.4 131.122 107.4C129.095 107.4 127.295 106.987 125.722 106.16C124.175 105.333 122.962 104.107 122.082 102.48C121.228 100.827 120.802 98.8133 120.802 96.44C120.802 94.0933 121.188 92.08 121.962 90.4C122.762 88.72 123.868 87.4267 125.282 86.52C126.722 85.6133 128.388 85.16 130.282 85.16ZM130.242 88.04C128.562 88.04 127.228 88.5867 126.242 89.68C125.282 90.7467 124.708 92.24 124.522 94.16H135.442C135.415 92.3467 134.988 90.88 134.162 89.76C133.335 88.6133 132.028 88.04 130.242 88.04ZM151.74 104.52C152.273 104.52 152.82 104.48 153.38 104.4C153.94 104.293 154.393 104.187 154.74 104.08V106.76C154.366 106.947 153.833 107.093 153.14 107.2C152.446 107.333 151.78 107.4 151.14 107.4C150.02 107.4 148.98 107.213 148.02 106.84C147.086 106.44 146.326 105.76 145.74 104.8C145.153 103.84 144.86 102.493 144.86 100.76V88.28H141.82V86.6L144.9 85.2L146.3 80.64H148.38V85.56H154.58V88.28H148.38V100.68C148.38 101.987 148.686 102.96 149.3 103.6C149.94 104.213 150.753 104.52 151.74 104.52ZM160.833 77.52C161.366 77.52 161.833 77.7067 162.233 78.08C162.659 78.4267 162.873 78.9867 162.873 79.76C162.873 80.5067 162.659 81.0667 162.233 81.44C161.833 81.8133 161.366 82 160.833 82C160.246 82 159.753 81.8133 159.353 81.44C158.953 81.0667 158.753 80.5067 158.753 79.76C158.753 78.9867 158.953 78.4267 159.353 78.08C159.753 77.7067 160.246 77.52 160.833 77.52ZM162.553 85.56V107H159.033V85.56H162.553ZM177.945 107.4C176.052 107.4 174.359 107.013 172.865 106.24C171.399 105.467 170.239 104.267 169.385 102.64C168.559 101.013 168.145 98.9333 168.145 96.4C168.145 93.76 168.585 91.6133 169.465 89.96C170.345 88.3067 171.532 87.0933 173.025 86.32C174.545 85.5467 176.265 85.16 178.185 85.16C179.279 85.16 180.332 85.28 181.345 85.52C182.359 85.7333 183.185 86 183.825 86.32L182.745 89.24C182.105 89 181.359 88.7733 180.505 88.56C179.652 88.3467 178.852 88.24 178.105 88.24C173.892 88.24 171.785 90.9467 171.785 96.36C171.785 98.9467 172.292 100.933 173.305 102.32C174.345 103.68 175.879 104.36 177.905 104.36C179.079 104.36 180.105 104.24 180.985 104C181.892 103.76 182.719 103.467 183.465 103.12V106.24C182.745 106.613 181.945 106.893 181.065 107.08C180.212 107.293 179.172 107.4 177.945 107.4ZM196.684 85.2C199.297 85.2 201.231 85.7733 202.484 86.92C203.737 88.0667 204.364 89.8933 204.364 92.4V107H201.804L201.124 103.96H200.964C200.031 105.133 199.044 106 198.004 106.56C196.991 107.12 195.577 107.4 193.764 107.4C191.817 107.4 190.204 106.893 188.924 105.88C187.644 104.84 187.004 103.227 187.004 101.04C187.004 98.9067 187.844 97.2667 189.524 96.12C191.204 94.9467 193.791 94.3067 197.284 94.2L200.924 94.08V92.8C200.924 91.0133 200.537 89.7733 199.764 89.08C198.991 88.3867 197.897 88.04 196.484 88.04C195.364 88.04 194.297 88.2133 193.284 88.56C192.271 88.88 191.324 89.2533 190.444 89.68L189.364 87.04C190.297 86.5333 191.404 86.1067 192.684 85.76C193.964 85.3867 195.297 85.2 196.684 85.2ZM197.724 96.64C195.057 96.7467 193.204 97.1733 192.164 97.92C191.151 98.6667 190.644 99.72 190.644 101.08C190.644 102.28 191.004 103.16 191.724 103.72C192.471 104.28 193.417 104.56 194.564 104.56C196.377 104.56 197.884 104.067 199.084 103.08C200.284 102.067 200.884 100.52 200.884 98.44V96.52L197.724 96.64Z" fill="black"/>
<defs>
<clipPath id="clip0">
<rect width="50" height="50" fill="white" transform="translate(78)"/>
</clipPath>
</defs>
</svg>
