<svg width="183" height="27" viewBox="0 0 183 27" fill="none" xmlns="http://www.w3.org/2000/svg">
<path d="M14.6055 14.1699H3.51367V23.2402H16.3984V26H0.138672V0.40625H16.2227V3.18359H3.51367V11.4102H14.6055V14.1699ZM27.3672 23.6973C28.5273 23.6973 29.541 23.3457 30.4082 22.6426C31.2754 21.9395 31.7559 21.0605 31.8496 20.0059H34.9258C34.8672 21.0957 34.4922 22.1328 33.8008 23.1172C33.1094 24.1016 32.1836 24.8867 31.0234 25.4727C29.875 26.0586 28.6562 26.3516 27.3672 26.3516C24.7773 26.3516 22.7148 25.4902 21.1797 23.7676C19.6562 22.0332 18.8945 19.666 18.8945 16.666V16.1211C18.8945 14.2695 19.2344 12.623 19.9141 11.1816C20.5938 9.74023 21.5664 8.62109 22.832 7.82422C24.1094 7.02734 25.6152 6.62891 27.3496 6.62891C29.4824 6.62891 31.252 7.26758 32.6582 8.54492C34.0762 9.82227 34.832 11.4805 34.9258 13.5195H31.8496C31.7559 12.2891 31.2871 11.2812 30.4434 10.4961C29.6113 9.69922 28.5801 9.30078 27.3496 9.30078C25.6973 9.30078 24.4141 9.89844 23.5 11.0938C22.5977 12.2773 22.1465 13.9941 22.1465 16.2441V16.8594C22.1465 19.0508 22.5977 20.7383 23.5 21.9219C24.4023 23.1055 25.6914 23.6973 27.3672 23.6973ZM37.7207 16.3145C37.7207 14.4512 38.084 12.7754 38.8105 11.2871C39.5488 9.79883 40.5684 8.65039 41.8691 7.8418C43.1816 7.0332 44.6758 6.62891 46.3516 6.62891C48.9414 6.62891 51.0332 7.52539 52.627 9.31836C54.2324 11.1113 55.0352 13.4961 55.0352 16.4727V16.7012C55.0352 18.5527 54.6777 20.2168 53.9629 21.6934C53.2598 23.1582 52.2461 24.3008 50.9219 25.1211C49.6094 25.9414 48.0977 26.3516 46.3867 26.3516C43.8086 26.3516 41.7168 25.4551 40.1113 23.6621C38.5176 21.8691 37.7207 19.4961 37.7207 16.543V16.3145ZM40.9902 16.7012C40.9902 18.8105 41.4766 20.5039 42.4492 21.7812C43.4336 23.0586 44.7461 23.6973 46.3867 23.6973C48.0391 23.6973 49.3516 23.0527 50.3242 21.7637C51.2969 20.4629 51.7832 18.6465 51.7832 16.3145C51.7832 14.2285 51.2852 12.541 50.2891 11.252C49.3047 9.95117 47.9922 9.30078 46.3516 9.30078C44.7461 9.30078 43.4512 9.93945 42.4668 11.2168C41.4824 12.4941 40.9902 14.3223 40.9902 16.7012Z" fill="#009E4E"/>
<path d="M70.1875 20.9551C70.1875 20.0762 69.8535 19.3965 69.1855 18.916C68.5293 18.4238 67.375 18.002 65.7227 17.6504C64.082 17.2988 62.7754 16.877 61.8027 16.3848C60.8418 15.8926 60.127 15.3066 59.6582 14.627C59.2012 13.9473 58.9727 13.1387 58.9727 12.2012C58.9727 10.6426 59.6289 9.32422 60.9414 8.24609C62.2656 7.16797 63.9531 6.62891 66.0039 6.62891C68.1602 6.62891 69.9062 7.18555 71.2422 8.29883C72.5898 9.41211 73.2637 10.8359 73.2637 12.5703H69.9941C69.9941 11.6797 69.6133 10.9121 68.8516 10.2676C68.1016 9.62305 67.1523 9.30078 66.0039 9.30078C64.8203 9.30078 63.8945 9.55859 63.2266 10.0742C62.5586 10.5898 62.2246 11.2637 62.2246 12.0957C62.2246 12.8809 62.5352 13.4727 63.1562 13.8711C63.7773 14.2695 64.8965 14.6504 66.5137 15.0137C68.1426 15.377 69.4609 15.8105 70.4688 16.3145C71.4766 16.8184 72.2207 17.4277 72.7012 18.1426C73.1934 18.8457 73.4395 19.707 73.4395 20.7266C73.4395 22.4258 72.7598 23.791 71.4004 24.8223C70.041 25.8418 68.2773 26.3516 66.1094 26.3516C64.5859 26.3516 63.2383 26.082 62.0664 25.543C60.8945 25.0039 59.9746 24.2539 59.3066 23.293C58.6504 22.3203 58.3223 21.2715 58.3223 20.1465H61.5742C61.6328 21.2363 62.0664 22.1035 62.875 22.748C63.6953 23.3809 64.7734 23.6973 66.1094 23.6973C67.3398 23.6973 68.3242 23.4512 69.0625 22.959C69.8125 22.4551 70.1875 21.7871 70.1875 20.9551ZM80.7344 6.98047L80.8223 9.08984C82.2168 7.44922 84.0977 6.62891 86.4648 6.62891C89.125 6.62891 90.9355 7.64844 91.8965 9.6875C92.5293 8.77344 93.3496 8.03516 94.3574 7.47266C95.377 6.91016 96.5781 6.62891 97.9609 6.62891C102.133 6.62891 104.254 8.83789 104.324 13.2559V26H101.072V13.4492C101.072 12.0898 100.762 11.0762 100.141 10.4082C99.5195 9.72852 98.4766 9.38867 97.0117 9.38867C95.8047 9.38867 94.8027 9.75195 94.0059 10.4785C93.209 11.1934 92.7461 12.1602 92.6172 13.3789V26H89.3477V13.5371C89.3477 10.7715 87.9941 9.38867 85.2871 9.38867C83.1543 9.38867 81.6953 10.2969 80.9102 12.1133V26H77.6582V6.98047H80.7344ZM117.139 26.3516C114.561 26.3516 112.463 25.5078 110.846 23.8203C109.229 22.1211 108.42 19.8535 108.42 17.0176V16.4199C108.42 14.5332 108.777 12.8516 109.492 11.375C110.219 9.88672 111.227 8.72656 112.516 7.89453C113.816 7.05078 115.223 6.62891 116.734 6.62891C119.207 6.62891 121.129 7.44336 122.5 9.07227C123.871 10.7012 124.557 13.0332 124.557 16.0684V17.4219H111.672C111.719 19.2969 112.264 20.8145 113.307 21.9746C114.361 23.123 115.697 23.6973 117.314 23.6973C118.463 23.6973 119.436 23.4629 120.232 22.9941C121.029 22.5254 121.727 21.9043 122.324 21.1309L124.311 22.6777C122.717 25.127 120.326 26.3516 117.139 26.3516ZM116.734 9.30078C115.422 9.30078 114.32 9.78125 113.43 10.7422C112.539 11.6914 111.988 13.0273 111.777 14.75H121.305V14.5039C121.211 12.8516 120.766 11.5742 119.969 10.6719C119.172 9.75781 118.094 9.30078 116.734 9.30078ZM132.748 2.375V6.98047H136.299V9.49414H132.748V21.2891C132.748 22.0508 132.906 22.625 133.223 23.0117C133.539 23.3867 134.078 23.5742 134.84 23.5742C135.215 23.5742 135.73 23.5039 136.387 23.3633V26C135.531 26.2344 134.699 26.3516 133.891 26.3516C132.438 26.3516 131.342 25.9121 130.604 25.0332C129.865 24.1543 129.496 22.9062 129.496 21.2891V9.49414H126.033V6.98047H129.496V2.375H132.748ZM143.646 26H140.395V6.98047H143.646V26ZM140.131 1.93555C140.131 1.4082 140.289 0.962891 140.605 0.599609C140.934 0.236328 141.414 0.0546875 142.047 0.0546875C142.68 0.0546875 143.16 0.236328 143.488 0.599609C143.816 0.962891 143.98 1.4082 143.98 1.93555C143.98 2.46289 143.816 2.90234 143.488 3.25391C143.16 3.60547 142.68 3.78125 142.047 3.78125C141.414 3.78125 140.934 3.60547 140.605 3.25391C140.289 2.90234 140.131 2.46289 140.131 1.93555ZM156.496 23.6973C157.656 23.6973 158.67 23.3457 159.537 22.6426C160.404 21.9395 160.885 21.0605 160.979 20.0059H164.055C163.996 21.0957 163.621 22.1328 162.93 23.1172C162.238 24.1016 161.312 24.8867 160.152 25.4727C159.004 26.0586 157.785 26.3516 156.496 26.3516C153.906 26.3516 151.844 25.4902 150.309 23.7676C148.785 22.0332 148.023 19.666 148.023 16.666V16.1211C148.023 14.2695 148.363 12.623 149.043 11.1816C149.723 9.74023 150.695 8.62109 151.961 7.82422C153.238 7.02734 154.744 6.62891 156.479 6.62891C158.611 6.62891 160.381 7.26758 161.787 8.54492C163.205 9.82227 163.961 11.4805 164.055 13.5195H160.979C160.885 12.2891 160.416 11.2812 159.572 10.4961C158.74 9.69922 157.709 9.30078 156.479 9.30078C154.826 9.30078 153.543 9.89844 152.629 11.0938C151.727 12.2773 151.275 13.9941 151.275 16.2441V16.8594C151.275 19.0508 151.727 20.7383 152.629 21.9219C153.531 23.1055 154.82 23.6973 156.496 23.6973ZM179.453 26C179.266 25.625 179.113 24.957 178.996 23.9961C177.484 25.5664 175.68 26.3516 173.582 26.3516C171.707 26.3516 170.166 25.8242 168.959 24.7695C167.764 23.7031 167.166 22.3555 167.166 20.7266C167.166 18.7461 167.916 17.2109 169.416 16.1211C170.928 15.0195 173.049 14.4688 175.779 14.4688H178.943V12.9746C178.943 11.8379 178.604 10.9355 177.924 10.2676C177.244 9.58789 176.242 9.24805 174.918 9.24805C173.758 9.24805 172.785 9.54102 172 10.127C171.215 10.7129 170.822 11.4219 170.822 12.2539H167.553C167.553 11.3047 167.887 10.3906 168.555 9.51172C169.234 8.62109 170.148 7.91797 171.297 7.40234C172.457 6.88672 173.729 6.62891 175.111 6.62891C177.303 6.62891 179.02 7.17969 180.262 8.28125C181.504 9.37109 182.148 10.877 182.195 12.7988V21.5527C182.195 23.2988 182.418 24.6875 182.863 25.7188V26H179.453ZM174.057 23.5215C175.076 23.5215 176.043 23.2578 176.957 22.7305C177.871 22.2031 178.533 21.5176 178.943 20.6738V16.7715H176.395C172.41 16.7715 170.418 17.9375 170.418 20.2695C170.418 21.2891 170.758 22.0859 171.438 22.6602C172.117 23.2344 172.99 23.5215 174.057 23.5215Z" fill="black"/>
</svg>
