<svg width="26" height="28" viewBox="0 0 26 28" fill="none" xmlns="http://www.w3.org/2000/svg">
<path d="M17.491 2.784C16.35 1.553 14.758 0.875 13 0.875C11.233 0.875 9.63503 1.54897 8.50003 2.77197C7.35303 4.00897 6.79402 5.69 6.92502 7.505C7.18502 11.087 9.91003 14 13 14C16.09 14 18.81 11.087 19.074 7.50702C19.207 5.70802 18.645 4.03 17.491 2.784ZM23.313 27.125H2.68802C2.41802 27.129 2.15003 27.072 1.90503 26.959C1.66003 26.846 1.44302 26.68 1.27002 26.473C0.889021 26.018 0.735031 25.396 0.849031 24.767C1.34303 22.024 2.88702 19.719 5.31302 18.102C7.46802 16.665 10.197 15.875 13 15.875C15.803 15.875 18.532 16.666 20.688 18.102C23.113 19.719 24.657 22.023 25.151 24.767C25.265 25.395 25.111 26.017 24.73 26.472C24.558 26.68 24.34 26.846 24.095 26.959C23.85 27.072 23.583 27.128 23.313 27.125Z" fill="#929292"/>
</svg>
