<svg width="18" height="18" viewBox="0 0 18 18" fill="none" xmlns="http://www.w3.org/2000/svg">
<path d="M9 0.771667C4.03724 0.771667 0 4.12642 0 8.24993C0 10.3687 1.08299 12.3727 2.98424 13.7947L1.539 16.6852C1.4625 16.8374 1.49924 17.0219 1.62675 17.1344C1.69724 17.1967 1.78499 17.2282 1.87425 17.2282C1.94699 17.2282 2.01976 17.2072 2.0835 17.1645L5.24626 15.0412C6.43725 15.4972 7.6995 15.7282 8.99926 15.7282C13.962 15.7282 18 12.3734 18 8.24993C18 4.12645 13.9628 0.771667 9 0.771667ZM8.99926 14.9782C7.72801 14.9782 6.49726 14.7412 5.3415 14.2739C5.22675 14.2274 5.09551 14.2402 4.99201 14.3099L2.84551 15.7507L3.798 13.8456C3.88125 13.6784 3.8295 13.4759 3.67576 13.3694C1.81575 12.0816 0.74925 10.2156 0.74925 8.25063C0.74925 4.54038 4.4505 1.52239 8.99926 1.52239C13.548 1.52239 17.2493 4.53964 17.2493 8.2499C17.2493 11.9601 13.548 14.9782 8.99926 14.9782Z" fill="#FFA21F"/>
</svg>
