<svg width="30" height="30" viewBox="0 0 30 30" fill="none" xmlns="http://www.w3.org/2000/svg">
<path d="M0.971747 11C1.50843 11 1.94349 10.6067 1.94349 10.1216V6.54091C1.94349 6.1085 2.33265 5.75673 2.81103 5.75673H6.02825C6.56494 5.75673 7 5.36348 7 4.87837C7 4.39326 6.56494 4 6.02825 4H2.81103C1.26096 3.99992 0 5.13979 0 6.54091V10.1216C0 10.6067 0.435065 11 0.971747 11Z" fill="#929292"/>
<path d="M6.02825 24.2433H2.81103C2.33265 24.2433 1.94349 23.8915 1.94349 23.4591V19.8784C1.94349 19.3933 1.50843 19 0.971747 19C0.435065 19 0 19.3933 0 19.8784V23.4591C0 24.8601 1.26096 26 2.81103 26H6.02825C6.56494 26 7 25.6067 7 25.1216C7 24.6365 6.56494 24.2433 6.02825 24.2433Z" fill="#929292"/>
<path d="M27.189 4H23.9717C23.4351 4 23 4.39326 23 4.87837C23 5.36348 23.4351 5.75673 23.9717 5.75673H27.189C27.6674 5.75673 28.0565 6.1085 28.0565 6.54091V10.1216C28.0565 10.6067 28.4916 11 29.0283 11C29.5649 11 30 10.6067 30 10.1216V6.54091C30 5.13987 28.739 4 27.189 4Z" fill="#929292"/>
<path d="M29.0283 19C28.4916 19 28.0565 19.3933 28.0565 19.8784V23.4591C28.0565 23.8915 27.6674 24.2433 27.189 24.2433H23.9717C23.4351 24.2433 23 24.6365 23 25.1216C23 25.6067 23.4351 26 23.9717 26H27.189C28.739 26 30 24.8601 30 23.4591V19.8784C30 19.3933 29.5649 19 29.0283 19Z" fill="#929292"/>
</svg>
