<svg width="259" height="242" viewBox="0 0 259 242" fill="none" xmlns="http://www.w3.org/2000/svg">
<path d="M196.911 95.8377C196.771 95.8377 196.637 95.8547 196.498 95.8566V90.1554C196.498 56.8331 167.285 29.8208 131.248 29.8208C95.2119 29.8208 65.9986 56.8331 65.9986 90.1554V95.8566C65.86 95.8537 65.7254 95.8377 65.5858 95.8377C54.5914 95.8377 45.6792 104.079 45.6792 114.245C45.6792 124.411 54.5914 132.652 65.5858 132.652C66.3081 132.652 67.0194 132.612 67.7215 132.542C74.4545 159.234 100.33 179.123 131.247 179.123C162.164 179.123 188.04 159.234 194.773 132.542C195.475 132.611 196.187 132.652 196.909 132.652C207.903 132.652 216.815 124.411 216.815 114.245C216.817 104.078 207.904 95.8377 196.911 95.8377Z" fill="#F9CFCF"/>
<path d="M131.249 181.014C100.402 181.014 73.8849 161.982 66.1685 134.534C65.9732 134.539 65.779 134.542 65.5878 134.542C53.4957 134.542 43.6567 125.436 43.6567 114.244C43.6567 103.552 52.6327 94.7666 63.9761 94V90.1554C63.9761 55.8443 94.1547 27.9302 131.249 27.9302C168.343 27.9302 198.522 55.8443 198.522 90.1554V94C209.865 94.7666 218.841 103.552 218.841 114.244C218.841 125.615 208.66 134.862 196.329 134.534C188.613 161.983 162.096 181.014 131.249 181.014ZM67.7235 130.652C68.6513 130.652 69.4738 131.247 69.6903 132.108C76.3929 158.677 101.706 177.233 131.248 177.233C160.789 177.233 186.103 158.677 192.805 132.108C193.037 131.181 193.977 130.554 194.987 130.662C195.662 130.728 196.292 130.76 196.91 130.76C206.77 130.76 214.793 123.351 214.793 114.244C214.793 105.139 206.773 97.7302 196.915 97.7273C196.731 97.7387 196.637 97.7443 196.541 97.7462C195.997 97.7538 195.47 97.5628 195.082 97.2074C194.693 96.852 194.474 96.3651 194.474 95.8566V90.1563C194.474 57.9306 166.111 31.7124 131.248 31.7124C96.3855 31.7124 68.022 57.9297 68.022 90.1563V95.8566C68.022 96.3651 67.8024 96.852 67.4139 97.2074C67.0234 97.5628 66.4852 97.7538 65.955 97.7462C65.8589 97.7443 65.7638 97.7387 65.6677 97.7321C65.6647 97.7321 65.6606 97.7321 65.6576 97.7321C55.7195 97.7321 47.7026 105.139 47.7026 114.244C47.7026 123.351 55.7255 130.76 65.5868 130.76C66.1978 130.76 66.8443 130.727 67.509 130.662C67.5819 130.654 67.6527 130.652 67.7235 130.652Z" fill="#BD9400"/>
<path d="M143.654 152.44C142.537 152.44 141.63 151.593 141.63 150.55C141.63 149.046 140.934 147.594 139.615 146.354C138.457 145.264 136.878 144.414 135.048 143.895C133.948 143.583 132.703 143.43 131.239 143.43C129.775 143.43 128.53 143.583 127.43 143.895C125.601 144.414 124.022 145.264 122.864 146.353C121.545 147.594 120.848 149.045 120.848 150.549C120.848 151.592 119.941 152.439 118.824 152.439C117.707 152.439 116.801 151.592 116.801 150.549C116.801 148.06 117.935 145.623 119.993 143.688C121.62 142.157 123.786 140.977 126.253 140.277C127.741 139.855 129.37 139.649 131.239 139.649C133.108 139.649 134.738 139.854 136.224 140.277C138.692 140.977 140.857 142.157 142.485 143.689C144.543 145.624 145.676 148.061 145.676 150.55C145.677 151.594 144.772 152.44 143.654 152.44Z" fill="#BD9400"/>
<path d="M44.5612 74.4793C41.609 67.0917 41.3986 58.9923 43.9653 51.4799L44.1859 50.8342C48.3845 38.5451 59.4466 29.3898 73.0097 26.9802C79.4119 25.842 86.0194 26.2769 92.1879 28.2412L92.9082 28.4709C92.9497 28.8198 93.0124 29.1705 93.1045 29.5193C96.0658 40.8309 101.503 51.2568 108.89 60.2155C102.479 76.9059 94.6342 86.4205 88.6539 91.6887V91.6897L80.805 99.134L65.5857 95.8368C61.4276 95.8368 57.5689 97.0193 54.3759 99.0357L44.5612 74.4793Z" fill="#C8A167"/>
<path d="M208.575 49.1807C203.456 34.3384 191.762 22.5447 176.812 16.7301L176.813 16.7225C124.256 -7.4501 95.5123 21.7137 95.5123 21.7137C93.3493 23.6592 92.3456 26.6171 93.1054 29.5201C99.1383 52.564 115.395 71.9656 137.641 82.6732L137.673 82.6883C142.475 84.9996 147.489 86.8874 152.653 88.3271C153.937 88.6853 154.973 87.2957 154.195 86.2587L143.389 71.8503C142.447 70.594 144.101 69.0616 145.386 70.0012C157.335 78.7444 180.551 93.2276 204.036 93.9545L207.861 84.1686C212.256 72.9204 212.507 60.5831 208.575 49.1807Z" fill="#C8A167"/>
<path d="M80.806 101.025C80.6542 101.025 80.5005 101.009 80.3487 100.976L65.3621 97.7292C61.8282 97.7689 58.4278 98.7605 55.511 100.603C54.9971 100.927 54.3526 101.015 53.7617 100.837C53.1709 100.661 52.6994 100.241 52.4819 99.6983L42.6662 75.1419C39.5694 67.3932 39.3478 58.7861 42.039 50.906L42.2615 50.2584C46.6888 37.2972 58.3276 27.6655 72.6343 25.1235C79.3673 23.9258 86.3563 24.3862 92.8444 26.4526L93.5658 26.6833C94.3074 26.9196 94.8365 27.536 94.9225 28.2638C94.9569 28.5474 95.0075 28.8197 95.0733 29.074C97.9465 40.0462 103.136 50.1374 110.496 59.0631C110.917 59.5735 111.03 60.2494 110.798 60.8554C104.111 78.2548 95.8209 87.9745 90.043 93.0641L82.2477 100.461C81.8632 100.826 81.3412 101.025 80.806 101.025ZM65.5867 93.946C65.7405 93.946 65.8943 93.9631 66.044 93.9952L80.1595 97.0533L87.2132 90.3624C92.6168 85.5999 100.27 76.626 106.612 60.5378C99.2628 51.3985 94.0595 41.1191 91.1397 29.9673C91.1336 29.9456 91.1276 29.9229 91.1215 29.9002C85.4144 28.1551 79.2915 27.7865 73.3891 28.8367C60.5423 31.1196 50.0912 39.7683 46.1142 51.4089L45.8916 52.0564C43.4756 59.1311 43.6759 66.8609 46.4571 73.8184L55.426 96.2564C58.5492 94.7392 62.0174 93.946 65.5867 93.946Z" fill="#BD9400"/>
<path d="M204.035 95.8443C204.014 95.8443 203.991 95.8443 203.969 95.8434C181.799 95.1571 159.96 82.5646 147.261 73.7193L155.85 85.1717C156.713 86.3212 156.702 87.8007 155.824 88.9388C154.959 90.06 153.488 90.5298 152.074 90.1375C146.803 88.6675 141.646 86.7258 136.746 84.3673C113.929 73.3865 97.3173 53.5643 91.1397 29.9693C90.2353 26.5179 91.3583 22.853 94.0676 20.3895C94.7597 19.7013 102.129 12.6077 115.817 8.35943C128.725 4.3532 149.944 2.25744 177.706 15.0267C177.723 15.0343 177.738 15.0409 177.753 15.0485C193.319 21.1542 205.249 33.3752 210.501 48.6004C214.556 60.3573 214.293 73.2183 209.762 84.8163L205.937 94.6022C205.644 95.3499 204.883 95.8443 204.035 95.8443ZM144.521 67.8149C145.257 67.8149 145.995 68.0455 146.633 68.5125C157.993 76.8237 180.173 90.7481 202.644 92.0007L205.959 83.5193C210.184 72.7087 210.428 60.7203 206.65 49.7603C201.743 35.5372 190.584 24.1339 176.034 18.4752C175.94 18.4384 175.85 18.3958 175.764 18.3476C154.907 8.7886 134.693 6.55105 117.305 11.8807C104.129 15.9182 97.0674 22.9258 96.9976 22.9957C96.9723 23.0222 96.9419 23.0496 96.9146 23.0742C95.2099 24.6075 94.5037 26.9046 95.0703 29.0693C100.971 51.6009 116.824 70.5251 138.567 80.9906C142.752 83.0042 147.104 84.6915 151.55 86.0273L141.731 72.9337C140.732 71.6018 140.921 69.8237 142.183 68.7063C142.852 68.1145 143.684 67.8149 144.521 67.8149Z" fill="#BD9400"/>
<path d="M98.9632 127.339C94.8364 127.339 91.4795 124.207 91.4795 120.358V108.721C91.4795 104.871 94.8364 101.739 98.9632 101.739C103.089 101.739 106.446 104.871 106.446 108.721V120.358C106.446 124.207 103.089 127.339 98.9632 127.339Z" fill="#BD9400"/>
<path d="M163.503 127.339C159.376 127.339 156.019 124.207 156.019 120.358V108.721C156.019 104.871 159.376 101.739 163.503 101.739C167.629 101.739 170.985 104.871 170.985 108.721V120.358C170.985 124.207 167.629 127.339 163.503 127.339Z" fill="#BD9400"/>
<path d="M175.531 105.883C175.396 105.883 175.261 105.87 175.125 105.844L151.5 101.34C150.404 101.131 149.698 100.133 149.92 99.1104C150.143 98.0876 151.213 97.4239 152.307 97.6357L175.933 102.139C177.028 102.348 177.735 103.346 177.512 104.369C177.317 105.264 176.473 105.883 175.531 105.883Z" fill="#BD9400"/>
<path d="M86.9492 105.883C86.0073 105.883 85.1635 105.265 84.9683 104.369C84.7447 103.345 85.4519 102.347 86.5476 102.139L110.173 97.6357C111.272 97.4239 112.337 98.0885 112.56 99.1103C112.783 100.134 112.076 101.132 110.981 101.34L87.3549 105.844C87.2194 105.87 87.0828 105.883 86.9492 105.883Z" fill="#BD9400"/>
<path d="M171.386 181.849H162.532C162.649 180.799 162.713 179.732 162.713 178.652V171.646C154.712 175.733 145.679 178.292 136.071 178.942C135.808 178.961 135.545 178.982 135.281 178.998C134.871 179.021 134.461 179.041 134.051 179.057C133.121 179.096 132.189 179.124 131.249 179.124C130.309 179.124 129.377 179.096 128.447 179.057C128.035 179.041 127.625 179.02 127.215 178.998C126.952 178.982 126.69 178.961 126.428 178.942C116.819 178.292 107.786 175.732 99.7847 171.646V178.652C99.7847 179.732 99.8485 180.799 99.9658 181.849H91.1113C71.7146 181.849 55.9905 196.541 55.9905 214.664V234.438H206.508V214.664C206.507 196.541 190.783 181.849 171.386 181.849Z" fill="#F9CFCF"/>
<path d="M206.507 236.328H55.9895C54.8726 236.328 53.9661 235.481 53.9661 234.438V214.664C53.9661 195.528 70.6291 179.958 91.1103 179.958H97.7907C97.7715 179.521 97.7624 179.084 97.7624 178.652V171.646C97.7624 170.979 98.1387 170.36 98.7528 170.02C99.3669 169.679 100.129 169.667 100.755 169.987C108.726 174.058 117.413 176.436 126.574 177.057L127.348 177.112C127.736 177.134 128.132 177.153 128.532 177.17C130.343 177.245 132.162 177.245 133.959 177.17C134.365 177.153 134.762 177.134 135.161 177.111L135.913 177.057C145.087 176.436 153.772 174.058 161.743 169.987C162.37 169.668 163.132 169.68 163.746 170.02C164.36 170.36 164.736 170.979 164.736 171.646V178.652C164.736 179.083 164.726 179.519 164.707 179.958H171.387C191.868 179.958 208.531 195.528 208.531 214.664V234.438C208.53 235.481 207.625 236.328 206.507 236.328ZM58.0129 232.547H204.484V214.664C204.484 197.612 189.636 183.739 171.386 183.739H162.532C161.959 183.739 161.413 183.513 161.029 183.115C160.646 182.717 160.46 182.186 160.519 181.654C160.632 180.637 160.689 179.627 160.689 178.652V174.745C153.041 178.201 144.824 180.245 136.218 180.828L135.413 180.886C134.98 180.91 134.559 180.931 134.135 180.947C132.229 181.028 130.273 181.028 128.355 180.947C127.938 180.93 127.515 180.909 127.093 180.887L126.272 180.828C117.671 180.246 109.456 178.202 101.807 174.746V178.652C101.807 179.636 101.865 180.645 101.977 181.652C102.037 182.184 101.852 182.716 101.468 183.115C101.084 183.513 100.538 183.739 99.9649 183.739H91.1093C72.8599 183.739 58.0119 197.613 58.0119 214.664V232.547H58.0129Z" fill="#BD9400"/>
<path d="M91.2235 190.722C92.5209 190.722 93.5727 189.74 93.5727 188.527C93.5727 187.315 92.5209 186.332 91.2235 186.332C89.926 186.332 88.8743 187.315 88.8743 188.527C88.8743 189.74 89.926 190.722 91.2235 190.722Z" fill="#F9A7A7"/>
<path d="M100.466 190.722C101.763 190.722 102.815 189.74 102.815 188.527C102.815 187.315 101.763 186.332 100.466 186.332C99.1682 186.332 98.1165 187.315 98.1165 188.527C98.1165 189.74 99.1682 190.722 100.466 190.722Z" fill="#F9A7A7"/>
<path d="M95.921 205.418C97.2184 205.418 98.2702 204.436 98.2702 203.223C98.2702 202.011 97.2184 201.028 95.921 201.028C94.6236 201.028 93.5718 202.011 93.5718 203.223C93.5718 204.436 94.6236 205.418 95.921 205.418Z" fill="#F9A7A7"/>
<path d="M96.4735 197.306C97.7709 197.306 98.8227 196.323 98.8227 195.111C98.8227 193.898 97.7709 192.916 96.4735 192.916C95.1761 192.916 94.1243 193.898 94.1243 195.111C94.1243 196.323 95.1761 197.306 96.4735 197.306Z" fill="#F9A7A7"/>
<path d="M88.0568 201.028C89.8057 201.028 91.2235 199.704 91.2235 198.069C91.2235 196.435 89.8057 195.111 88.0568 195.111C86.3079 195.111 84.8901 196.435 84.8901 198.069C84.8901 199.704 86.3079 201.028 88.0568 201.028Z" fill="#F9A7A7"/>
<path d="M81.1043 195.112C82.4018 195.112 83.4535 194.129 83.4535 192.917C83.4535 191.704 82.4018 190.722 81.1043 190.722C79.8069 190.722 78.7551 191.704 78.7551 192.917C78.7551 194.129 79.8069 195.112 81.1043 195.112Z" fill="#F9A7A7"/>
<path d="M75.0987 211.698C76.3962 211.698 77.4479 210.715 77.4479 209.503C77.4479 208.291 76.3962 207.308 75.0987 207.308C73.8013 207.308 72.7495 208.291 72.7495 209.503C72.7495 210.715 73.8013 211.698 75.0987 211.698Z" fill="#F9A7A7"/>
<path d="M68.8058 203.042C70.5548 203.042 71.9725 201.717 71.9725 200.083C71.9725 198.449 70.5548 197.124 68.8058 197.124C67.0569 197.124 65.6392 198.449 65.6392 200.083C65.6392 201.717 67.0569 203.042 68.8058 203.042Z" fill="#F9A7A7"/>
<path d="M78.7551 219.899C80.504 219.899 81.9217 218.574 81.9217 216.94C81.9217 215.306 80.504 213.981 78.7551 213.981C77.0062 213.981 75.5884 215.306 75.5884 216.94C75.5884 218.574 77.0062 219.899 78.7551 219.899Z" fill="#F9A7A7"/>
<path d="M98.1174 216.94C99.8663 216.94 101.284 215.615 101.284 213.981C101.284 212.347 99.8663 211.022 98.1174 211.022C96.3685 211.022 94.9507 212.347 94.9507 213.981C94.9507 215.615 96.3685 216.94 98.1174 216.94Z" fill="#F9A7A7"/>
<path d="M106.729 202.341C108.478 202.341 109.896 201.017 109.896 199.382C109.896 197.748 108.478 196.424 106.729 196.424C104.98 196.424 103.562 197.748 103.562 199.382C103.562 201.017 104.98 202.341 106.729 202.341Z" fill="#F9A7A7"/>
<path d="M111.853 212.766C113.602 212.766 115.02 211.442 115.02 209.807C115.02 208.173 113.602 206.849 111.853 206.849C110.105 206.849 108.687 208.173 108.687 209.807C108.687 211.442 110.105 212.766 111.853 212.766Z" fill="#F9A7A7"/>
<path d="M78.7552 203.954C80.0526 203.954 81.1044 202.971 81.1044 201.759C81.1044 200.547 80.0526 199.564 78.7552 199.564C77.4578 199.564 76.406 200.547 76.406 201.759C76.406 202.971 77.4578 203.954 78.7552 203.954Z" fill="#F9A7A7"/>
<path d="M85.5406 211.663C86.8381 211.663 87.8898 210.68 87.8898 209.468C87.8898 208.256 86.8381 207.273 85.5406 207.273C84.2432 207.273 83.1914 208.256 83.1914 209.468C83.1914 210.68 84.2432 211.663 85.5406 211.663Z" fill="#F9A7A7"/>
<path d="M66.0995 211.213C67.3969 211.213 68.4487 210.23 68.4487 209.018C68.4487 207.806 67.3969 206.823 66.0995 206.823C64.802 206.823 63.7502 207.806 63.7502 209.018C63.7502 210.23 64.802 211.213 66.0995 211.213Z" fill="#F9A7A7"/>
<path d="M70.3558 223.308C71.6532 223.308 72.705 222.326 72.705 221.113C72.705 219.901 71.6532 218.918 70.3558 218.918C69.0584 218.918 68.0066 219.901 68.0066 221.113C68.0066 222.326 69.0584 223.308 70.3558 223.308Z" fill="#F9A7A7"/>
<path d="M83.4525 227.698C84.7499 227.698 85.8017 226.716 85.8017 225.503C85.8017 224.291 84.7499 223.308 83.4525 223.308C82.155 223.308 81.1033 224.291 81.1033 225.503C81.1033 226.716 82.155 227.698 83.4525 227.698Z" fill="#F9A7A7"/>
<path d="M62.774 220.171C64.0715 220.171 65.1232 219.188 65.1232 217.976C65.1232 216.764 64.0715 215.781 62.774 215.781C61.4766 215.781 60.4248 216.764 60.4248 217.976C60.4248 219.188 61.4766 220.171 62.774 220.171Z" fill="#F9A7A7"/>
<path d="M63.7504 230.656C65.4993 230.656 66.9171 229.332 66.9171 227.697C66.9171 226.063 65.4993 224.739 63.7504 224.739C62.0015 224.739 60.5837 226.063 60.5837 227.697C60.5837 229.332 62.0015 230.656 63.7504 230.656Z" fill="#F9A7A7"/>
<path d="M111.853 191.486C113.602 191.486 115.02 190.162 115.02 188.527C115.02 186.893 113.602 185.569 111.853 185.569C110.105 185.569 108.687 186.893 108.687 188.527C108.687 190.162 110.105 191.486 111.853 191.486Z" fill="#F9A7A7"/>
<path d="M170.985 159.156C172.492 159.156 173.713 158.015 173.713 156.607C173.713 155.2 172.492 154.058 170.985 154.058C169.479 154.058 168.258 155.2 168.258 156.607C168.258 158.015 169.479 159.156 170.985 159.156Z" fill="#F9A7A7"/>
<path d="M158.748 160.101C160.254 160.101 161.475 158.96 161.475 157.552C161.475 156.145 160.254 155.004 158.748 155.004C157.241 155.004 156.02 156.145 156.02 157.552C156.02 158.96 157.241 160.101 158.748 160.101Z" fill="#F9A7A7"/>
<path d="M163.503 167.004C165.009 167.004 166.23 165.863 166.23 164.455C166.23 163.048 165.009 161.906 163.503 161.906C161.996 161.906 160.775 163.048 160.775 164.455C160.775 165.863 161.996 167.004 163.503 167.004Z" fill="#F9A7A7"/>
<path d="M155.034 167.005C156.151 167.005 157.057 166.158 157.057 165.114C157.057 164.07 156.151 163.223 155.034 163.223C153.916 163.223 153.01 164.07 153.01 165.114C153.01 166.158 153.916 167.005 155.034 167.005Z" fill="#F9A7A7"/>
<path d="M165.526 153.141C166.644 153.141 167.55 152.294 167.55 151.25C167.55 150.206 166.644 149.359 165.526 149.359C164.409 149.359 163.503 150.206 163.503 151.25C163.503 152.294 164.409 153.141 165.526 153.141Z" fill="#F9A7A7"/>
<path d="M177.306 153.141C178.423 153.141 179.329 152.294 179.329 151.25C179.329 150.206 178.423 149.359 177.306 149.359C176.188 149.359 175.282 150.206 175.282 151.25C175.282 152.294 176.188 153.141 177.306 153.141Z" fill="#F9A7A7"/>
<path d="M76.2156 138.725C77.3331 138.725 78.239 137.878 78.239 136.834C78.239 135.79 77.3331 134.943 76.2156 134.943C75.0981 134.943 74.1921 135.79 74.1921 136.834C74.1921 137.878 75.0981 138.725 76.2156 138.725Z" fill="#F9A7A7"/>
<path d="M87.6612 140.328C89.1676 140.328 90.3888 139.187 90.3888 137.779C90.3888 136.372 89.1676 135.231 87.6612 135.231C86.1548 135.231 84.9336 136.372 84.9336 137.779C84.9336 139.187 86.1548 140.328 87.6612 140.328Z" fill="#F9A7A7"/>
<path d="M84.2286 153.098C85.735 153.098 86.9562 151.957 86.9562 150.55C86.9562 149.142 85.735 148.001 84.2286 148.001C82.7222 148.001 81.501 149.142 81.501 150.55C81.501 151.957 82.7222 153.098 84.2286 153.098Z" fill="#F9A7A7"/>
<path d="M92.8958 148.594C94.4022 148.594 95.6234 147.453 95.6234 146.045C95.6234 144.638 94.4022 143.497 92.8958 143.497C91.3894 143.497 90.1682 144.638 90.1682 146.045C90.1682 147.453 91.3894 148.594 92.8958 148.594Z" fill="#F9A7A7"/>
<path d="M92.8523 157.551C94.3588 157.551 95.5799 156.41 95.5799 155.003C95.5799 153.595 94.3588 152.454 92.8523 152.454C91.3459 152.454 90.1248 153.595 90.1248 155.003C90.1248 156.41 91.3459 157.551 92.8523 157.551Z" fill="#F9A7A7"/>
<path d="M182.876 147.936C183.994 147.936 184.9 147.089 184.9 146.045C184.9 145.001 183.994 144.154 182.876 144.154C181.759 144.154 180.853 145.001 180.853 146.045C180.853 147.089 181.759 147.936 182.876 147.936Z" fill="#F9A7A7"/>
<path d="M80.2424 145.543C81.3599 145.543 82.2659 144.697 82.2659 143.653C82.2659 142.608 81.3599 141.762 80.2424 141.762C79.1249 141.762 78.219 142.608 78.219 143.653C78.219 144.697 79.1249 145.543 80.2424 145.543Z" fill="#F9A7A7"/>
<path d="M74.4117 193.702C75.7091 193.702 76.7609 192.719 76.7609 191.507C76.7609 190.295 75.7091 189.312 74.4117 189.312C73.1143 189.312 72.0625 190.295 72.0625 191.507C72.0625 192.719 73.1143 193.702 74.4117 193.702Z" fill="#F9A7A7"/>
</svg>
